<?xml version="1.0" encoding="UTF-8"?>
<!DOCTYPE svg PUBLIC "-//W3C//DTD SVG 1.1//EN" "http://www.w3.org/Graphics/SVG/1.1/DTD/svg11.dtd">
<!-- Creator: CorelDRAW X7 -->
<svg xmlns="http://www.w3.org/2000/svg" xml:space="preserve" width="4.13333in" height="2.4in" version="1.1" style="shape-rendering:geometricPrecision; text-rendering:geometricPrecision; image-rendering:optimizeQuality; fill-rule:evenodd; clip-rule:evenodd"
viewBox="0 0 4133 2400"
 xmlns:xlink="http://www.w3.org/1999/xlink">
 <defs>
  <style type="text/css">
   <![CDATA[
    .str0 {stroke:rgb(135, 42, 201);stroke-width:3.33071;animation:bobbing-motion 2s ease-in-out alternate infinite; animation-delay: var(--delay)}
    .str1 {stroke:rgb(135, 42, 201);stroke-width:3.33071}
    .fil3 {fill:none}
    .fil0 {fill:none;fill-rule:nonzero}
    .fil1 {fill:rgb(253, 235, 244);animation:bobbing-motion 2s ease-in-out alternate infinite; animation-delay: var(--delay)}
    .fil2 {fill:rgb(253, 235, 244)}
    @keyframes bobbing-motion {
      0% {transform:translateX(0) translateY(0);}
      100% {transform:translateX(50px) translateY(50px);}
    }
   ]]>
  </style>
   <clipPath id="id0">
    <path d="M0 0l4133 0 0 2400 -4133 0 0 -2400z"/>
   </clipPath>
 </defs>
 <g id="Layer_x0020_1">
  <metadata id="CorelCorpID_0Corel-Layer"/>
  <g>
  </g>
  <g style="clip-path:url(#id0)">
   <g>
    <g id="_309596680">
     <path style="--delay: 0.0s" class="fil0 str0" d="M217 3410c195,-44 390,-87 585,-131 170,-39 210,-144 425,-124 197,19 181,-4 350,-75 75,-32 130,-33 210,-27 145,13 116,47 269,-22 110,-49 96,-48 206,-56 151,-10 261,-69 392,-134 140,-68 212,-33 356,-60 115,-24 187,-32 295,-85 327,-159 483,-7 747,-76 144,-39 304,-107 441,-167 23,-10 45,-21 67,-31 2,34 1,21 -42,39 -119,50 -245,113 -368,147 -239,64 -240,29 -480,20 -153,-6 -255,38 -390,96 -70,31 -173,48 -250,65 -83,19 -143,18 -219,32 -107,19 -221,106 -347,140 -83,22 -142,27 -226,27 -71,-1 -181,60 -261,83 -74,20 -144,-12 -228,-9 -195,9 -208,79 -351,107 -161,32 -193,-49 -390,41 -106,49 -119,63 -241,91 -182,41 -365,82 -547,123l-3 -14z"/>
     <path style="--delay: 1.0s" class="fil0 str0" d="M203 3347c169,-38 341,-74 509,-114 169,-39 243,-167 459,-137 181,26 175,9 344,-67 102,-45 171,-43 277,-12 147,45 149,23 282,-55 95,-54 108,-31 161,-55 30,-14 91,-52 125,-70 45,-26 192,-130 218,-138 80,-23 214,80 419,21 110,-31 126,-34 229,-88 26,-14 52,-26 79,-38 214,-95 490,84 722,-32 102,-51 109,-63 222,-93 118,-33 203,-78 310,-134 -1,34 -2,21 -54,46 -102,47 -170,74 -277,108 -28,9 -46,16 -72,29 -213,107 -239,106 -482,78 -221,-26 -256,-46 -455,62 -90,47 -226,86 -328,91 -114,6 -239,-60 -324,-14 -50,27 -102,69 -154,100 -28,15 -170,92 -196,94 -134,14 -183,96 -296,119 -137,11 -186,-94 -394,-7 -192,80 -158,90 -364,64 -183,-23 -280,103 -448,141 -170,38 -340,77 -509,115l-3 -14z"/>
     <path style="--delay: 1.5s" class="fil0 str0" d="M188 3284c107,-24 415,-83 495,-121 151,-73 204,-146 392,-123 239,29 181,29 396,-64 100,-43 170,-47 273,-11 169,67 153,47 297,-58 94,-65 119,-30 184,-76 88,-61 157,-98 244,-168 104,-79 116,-27 230,16 314,119 411,-174 683,-178 24,-1 41,2 64,5 150,26 247,79 411,39 115,-32 145,-90 261,-101 188,-19 243,-30 393,-154 9,-8 59,-57 53,-27 -3,11 -151,110 -175,122 -119,62 -169,49 -287,72 -125,25 -147,115 -341,112 -34,-1 -66,-4 -99,-8 -210,-26 -237,-105 -462,7 -65,33 -121,70 -182,102 -245,128 -411,-71 -493,-31 -26,14 -93,71 -124,94 -22,16 -199,133 -214,137 -56,15 -52,-4 -117,38 -79,51 -134,119 -235,99 -149,-43 -176,-92 -346,-23 -182,74 -161,100 -365,70 -276,-40 -307,103 -536,155 -132,29 -264,59 -396,89l-4 -14z"/>
     <path style="--delay: 2.0s" class="fil0 str0" d="M174 3221c113,-25 228,-50 340,-76 175,-42 275,-198 499,-155 234,45 208,25 417,-66 100,-43 184,-47 285,-8 204,86 155,14 307,-87 49,-33 106,-17 185,-60 102,-55 164,-102 255,-172 78,-59 106,-8 187,35 170,89 302,31 435,-84 105,-91 242,-106 374,-77 215,54 243,71 444,-53 90,-51 120,-21 219,-17 163,7 274,-48 385,-164 23,-24 35,-36 63,-54 -1,27 -9,16 -40,44 -97,89 -140,143 -280,173 -102,21 -151,2 -243,4 -102,2 -156,125 -359,119 -156,-10 -214,-94 -399,-42 -170,52 -155,101 -282,165 -236,119 -379,-81 -448,-66 -22,4 -59,34 -78,48 -38,28 -72,57 -111,84 -58,37 -150,102 -218,106 -90,5 -127,73 -203,128 -106,72 -175,-60 -335,-44 -247,29 -225,164 -531,101 -249,-51 -325,110 -525,155 -113,26 -226,51 -340,77l-3 -14z"/>
     <path style="--delay: 2.5s" class="fil0 str0" d="M160 3158c98,-22 300,-59 381,-97 197,-94 252,-147 477,-98 250,54 285,-104 505,-122 49,-5 82,-2 129,12 150,51 143,65 260,-40 115,-97 130,-44 252,-96 131,-56 180,-98 295,-174 81,-53 111,32 206,69 153,58 297,-39 411,-126 77,-59 166,-65 260,-61 44,1 81,7 124,15 222,46 188,16 369,-88 117,-63 153,-8 283,-2 174,8 275,-59 393,-175 6,-6 72,-68 65,-34 -1,1 -26,14 -32,19 -65,50 -84,97 -174,147 -221,122 -393,4 -475,34 -142,53 -154,163 -357,123l-14 -3c-119,-26 -254,-52 -373,-4 -62,25 -128,106 -220,148 -269,123 -354,-101 -438,-67 -28,11 -122,85 -153,107 -74,48 -190,112 -280,116 -84,4 -119,62 -184,116 -101,83 -175,-41 -330,-25 -173,20 -252,113 -382,130 -167,21 -207,-93 -460,17 -135,58 -129,82 -290,118 -81,18 -163,36 -245,55l-3 -14z"/>
     <path style="--delay: 3.0s" class="fil0 str0" d="M146 3095c124,-28 247,-47 363,-98 212,-92 260,-105 482,-63 217,41 258,-108 472,-140 52,-7 94,-11 145,2 188,55 149,11 295,-76 61,-37 108,-25 178,-49 126,-43 187,-79 300,-147 88,-51 82,-81 162,-21 165,121 382,-37 543,-90 86,-28 288,-12 382,-8 243,8 246,-171 479,-143 203,25 345,-14 510,-132 99,-71 121,-36 97,-34 -39,4 -143,93 -189,119 -145,84 -268,83 -427,59 -193,-30 -219,147 -437,141 -14,0 -29,-2 -43,-3 -123,-11 -289,-31 -402,28 -140,73 -353,191 -501,80 -85,-64 -71,-41 -173,20 -49,29 -95,58 -146,85 -71,35 -154,74 -234,78 -148,8 -153,177 -354,116 -111,-35 -211,-21 -317,29 -215,102 -163,123 -395,80 -254,-49 -347,82 -561,130 -75,17 -151,34 -226,51l-3 -14z"/>
     <path style="--delay: 3.5s" class="fil0 str0" d="M132 3032c114,-26 198,-41 310,-84 215,-81 269,-84 491,-47 226,38 222,-84 412,-140 52,-15 169,-32 223,-24 139,33 133,18 256,-59 103,-62 136,-33 239,-74 117,-49 241,-116 351,-181 106,-62 55,34 213,-1 168,-37 324,-78 497,-59 63,7 148,10 212,10 220,-2 250,-116 437,-160 194,-46 374,-103 564,-165 62,-20 136,-35 201,-12 7,3 23,18 -4,11 -98,-23 -251,59 -353,90 -113,34 -193,47 -306,68 -27,5 -54,11 -80,17 -242,57 -181,174 -526,154 -223,-12 -288,-5 -508,45 -75,17 -186,62 -249,13 -50,-38 -63,-8 -122,24 -64,36 -137,79 -202,111 -84,39 -149,70 -241,78 -89,8 -144,84 -233,116 -77,24 -124,-27 -201,-17 -212,30 -188,37 -360,133 -151,84 -246,-2 -417,7 -162,8 -278,87 -431,122 -57,13 -114,25 -170,38l-3 -14z"/>
     <path style="--delay: 4.0s" class="fil0 str0" d="M118 2969c103,-23 169,-37 271,-75 182,-69 279,-64 465,-28 255,48 219,-78 413,-146 54,-19 167,-30 230,-40 74,-13 89,40 202,-22 92,-51 109,-73 214,-81 147,-19 324,-143 455,-214 138,-71 91,4 206,-40 179,-69 323,-66 504,-8 59,19 92,18 153,23 229,19 229,-87 409,-157 119,-42 176,-27 285,-100 154,-106 365,-210 549,-117 20,10 44,15 54,36 -119,-54 -156,-69 -292,-38 -149,34 -227,91 -353,162 -47,27 -106,35 -159,48 -205,47 -248,190 -460,175 -122,-8 -121,-6 -234,-38 -159,-46 -298,-25 -451,32 -127,48 -46,-52 -221,48l-16 9c-66,40 -157,90 -226,123 -75,34 -137,65 -219,70 -89,5 -161,83 -253,108 -63,14 -86,-19 -168,-2 -224,43 -174,3 -365,137 -143,99 -233,26 -394,15 -192,-13 -308,69 -483,108 -37,9 -75,17 -113,26l-3 -14z"/>
     <path style="--delay: 3.5s" class="fil0 str0" d="M103 2906c105,-24 164,-40 264,-76 284,-100 449,47 582,6 118,-36 127,-164 352,-186 60,-6 112,-12 171,-23 83,-18 68,32 195,-40 99,-54 111,-60 218,-67 147,-18 309,-139 436,-213 137,-75 131,-5 240,-50 186,-77 315,-62 499,11 45,18 62,22 111,26 247,24 215,-89 399,-163 81,-30 254,-54 305,-87 80,-51 112,-101 213,-144 138,-58 275,-47 401,34 4,3 7,9 10,13 -138,-78 -244,-99 -395,-38 -110,44 -144,95 -233,153 -44,28 -145,44 -199,56 -198,45 -219,141 -337,181 -84,23 -196,11 -275,-23 -337,-146 -500,25 -571,12 -50,-9 -43,-18 -106,8 -40,16 -84,43 -121,66 -114,71 -267,163 -402,172 -116,4 -170,80 -274,104 -52,9 -60,-10 -135,7 -217,42 -212,-16 -396,140 -132,112 -198,57 -357,29 -226,-38 -316,44 -516,89 -25,6 -50,11 -75,17l-4 -14z"/>
     <path style="--delay: 3.0s" class="fil0 str0" d="M89 2843c108,-24 175,-49 276,-80 279,-86 435,120 575,-5 106,-94 121,-146 285,-166 74,-9 147,-10 223,-20 87,-12 65,25 177,-39 194,-107 163,-37 297,-82 148,-52 206,-99 334,-180 200,-120 169,-11 294,-56 191,-69 297,-63 488,3 51,18 66,20 120,20 191,3 203,-128 403,-175 88,-20 261,-44 329,-96 109,-85 185,-141 329,-143 65,-1 182,24 236,60 3,2 7,9 9,11 -216,-109 -371,-75 -553,71 -40,32 -51,42 -102,54 -75,17 -151,34 -226,51 -214,48 -219,186 -418,179 -123,-4 -185,-60 -315,-73 -117,-13 -194,7 -304,47 -127,46 -78,-68 -293,66 -66,42 -134,86 -203,122 -86,41 -144,66 -239,68 -87,1 -149,57 -229,92 -54,21 -86,5 -146,16 -217,35 -275,-25 -451,151 -122,122 -186,62 -342,28 -217,-47 -312,36 -513,82l-38 8 -3 -14z"/>
     <path style="--delay: 2.5s" class="fil0 str0" d="M75 2780c115,-26 227,-70 338,-92 201,-39 327,133 458,5 125,-123 116,-120 299,-161 55,-13 100,-16 156,-17 66,0 92,-3 156,4 112,-2 154,-100 289,-105 295,-21 461,-257 620,-251 112,9 67,40 203,4 170,-45 226,-36 393,-11 79,11 168,-10 241,-40 115,-53 128,-73 262,-104 159,-35 205,-30 338,-131 112,-84 189,-91 326,-92 74,-1 200,20 267,50 5,3 19,16 -2,7 -159,-67 -340,-64 -499,2 -112,54 -109,100 -259,137 -62,16 -126,29 -188,44 -165,40 -198,125 -385,143 -94,7 -191,-34 -307,-30 -102,4 -158,33 -246,47 -43,7 -73,-1 -114,-10 -68,-17 -105,4 -163,35 -172,96 -262,206 -480,213 -80,0 -128,37 -196,76 -78,44 -101,21 -186,26 -151,8 -327,4 -443,116 -115,111 -108,142 -286,88 -231,-70 -252,-34 -470,31 -40,12 -78,21 -119,30l-3 -14z"/>
     <path style="--delay: 2.0s" class="fil0 str0" d="M61 2717c131,-29 345,-115 471,-88 170,38 163,70 298,-41 63,-52 93,-65 174,-83 126,-29 146,-62 296,-61 81,1 89,8 159,19 105,5 145,-91 267,-101 308,-35 400,-209 588,-242 109,-13 172,31 292,14 103,-14 167,-29 275,-32 114,-5 202,-45 311,-79 57,-18 112,-33 170,-47 275,-62 215,-46 440,-201 127,-87 184,-58 323,-30 75,15 142,27 217,44 18,4 65,5 62,19 0,1 -193,-41 -211,-44 -79,-12 -219,-45 -292,-25 -145,59 -184,164 -366,211 -62,15 -126,28 -188,43 -121,29 -230,79 -343,108 -64,16 -181,6 -261,16 -192,24 -140,54 -355,13 -70,-14 -117,11 -178,43 -80,44 -150,98 -234,139 -89,41 -145,56 -241,61 -71,4 -127,48 -189,83 -71,40 -104,8 -185,5 -134,-5 -170,3 -296,43 -179,54 -124,30 -265,140 -123,96 -216,-31 -382,-4 -115,20 -222,62 -335,87l-19 4 -3 -14z"/>
     <path style="--delay: 1.5s" class="fil0 str0" d="M47 2654c136,-31 343,-103 476,-90 165,16 132,9 270,-65 49,-26 87,-32 140,-44 155,-35 234,-115 417,-73 111,26 95,57 211,-18 118,-75 163,-55 289,-98 134,-48 203,-116 316,-163 125,-49 190,-32 316,-22 157,14 101,31 268,-5 94,-20 136,-34 225,-65 62,-22 120,-40 183,-55l21 -5c191,-43 316,-51 477,-176 131,-103 203,-116 369,-88 90,15 180,38 271,55 30,6 53,7 84,6 7,20 7,14 -37,11 -207,-27 -416,-145 -609,-22 -108,74 -150,129 -288,164l-20 6c-82,19 -163,37 -245,56 -137,34 -254,88 -391,112 -136,25 -165,40 -305,18 -83,-13 -135,-21 -219,-6 -136,30 -240,123 -367,179 -68,29 -128,41 -202,52 -59,7 -109,45 -159,76 -96,59 -116,7 -220,-3 -137,-15 -184,15 -304,57 -127,41 -138,24 -258,99 -150,95 -192,3 -368,39 -117,24 -224,56 -338,82l-3 -14z"/>
     <path style="--delay: 1.0s" class="fil0 str0" d="M33 2591c103,-23 205,-45 308,-67 90,-20 81,-31 181,-31 123,0 203,-56 322,-84l37 -9c169,-40 260,-144 459,-73 179,61 131,-5 272,-64 54,-23 136,-43 196,-66 108,-42 192,-108 288,-144 103,-35 273,-33 384,-28 140,7 100,25 245,-18 133,-39 242,-78 380,-109 90,-19 179,-36 268,-58 147,-41 160,-73 280,-148 100,-63 233,-46 349,-34 42,4 84,10 126,15 80,10 154,30 233,13 6,23 3,17 -26,19 -60,5 -235,-29 -311,-38 -93,-10 -225,-31 -311,7 -129,59 -152,126 -324,176 -24,7 -47,12 -71,18 -88,20 -176,40 -264,60 -126,30 -228,78 -346,108 -107,26 -208,4 -315,4 -124,-1 -143,-22 -273,24 -107,39 -193,111 -313,154 -50,18 -100,31 -151,43 -47,12 -106,55 -148,81 -92,56 -133,-8 -238,-21 -157,-19 -256,64 -404,97 -97,22 -138,49 -222,75 -93,28 -147,3 -247,29 -94,26 -203,46 -301,69 -20,5 -40,10 -60,14l-3 -14z"/>
     <path style="--delay: 0.5s" class="fil0 str0" d="M18 2528c94,-21 182,-34 274,-53 104,-22 104,-56 215,-66 84,-8 200,-36 285,-55 208,-46 293,-164 528,-81 160,55 154,-28 301,-86 131,-51 218,-95 341,-162 143,-75 220,-37 370,-43 115,-5 178,-10 287,-47 81,-28 210,-39 304,-61 162,-36 449,-85 585,-166 213,-128 159,-93 399,-72 98,9 332,9 422,-20 21,-8 15,-14 20,12 -98,36 -243,17 -351,16 -90,-1 -150,-16 -232,-21 -147,-9 -216,95 -348,145 -43,16 -89,28 -133,39 -187,42 -370,85 -557,125 -101,21 -144,45 -253,52 -105,7 -186,8 -290,7 -173,-2 -269,93 -423,158 -48,20 -97,38 -146,55 -37,13 -104,62 -140,83 -124,74 -186,-104 -479,12 -109,43 -154,57 -268,84 -101,24 -137,38 -244,45 -69,6 -110,43 -191,59 -92,19 -179,34 -272,55l-4 -14z"/>
     <path style="--delay: 1.0s" class="fil0 str0" d="M4 2465c97,-21 177,-27 270,-45 111,-21 112,-67 225,-86 87,-15 154,-29 244,-39 182,-21 237,-135 466,-94 27,5 54,12 80,19 152,40 163,-39 289,-89 74,-30 198,-91 267,-132 140,-81 159,-95 316,-64 111,22 265,13 361,-51 92,-62 99,-51 214,-53 83,-2 130,-10 211,-28 152,-34 391,-80 525,-144 240,-115 164,-69 413,-39 114,14 291,-30 397,-74l15 -7c36,-16 36,-32 40,3 -158,70 -351,103 -522,71 -215,-40 -170,-19 -362,71 -75,35 -154,54 -234,73 -115,26 -252,62 -366,81 -94,16 -216,-8 -295,44 -116,75 -278,86 -409,59 -93,-20 -146,-8 -229,36 -126,69 -207,112 -341,167 -37,16 -99,61 -137,83 -95,53 -185,-28 -311,-25 -166,10 -260,94 -415,111 -42,5 -260,39 -293,55 -71,36 -64,50 -159,67 -90,16 -165,24 -257,44l-3 -14z"/>
     <path style="--delay: 1.5s" class="fil0 str0" d="M-10 2402c107,-24 186,-24 287,-41 102,-17 112,-64 206,-87 101,-25 167,-34 269,-51 200,-37 202,-109 445,-65 219,41 183,-20 366,-97 114,-47 215,-109 324,-166 170,-79 222,30 405,10 89,-10 159,-23 223,-87 51,-51 130,-42 202,-48 94,-7 157,-20 248,-34 19,-3 38,-5 57,-7 153,-19 199,-63 337,-107 95,-30 222,-85 319,-64 187,41 210,89 403,-4 77,-37 146,-78 226,-110 24,-9 18,-14 21,11 -150,62 -308,176 -478,149 -199,-31 -156,-81 -368,0 -74,28 -146,47 -218,74 -130,48 -266,70 -402,94 -76,14 -274,9 -318,36 -60,37 -37,63 -146,89 -99,24 -185,26 -282,-2 -103,-29 -147,-25 -242,26 -116,68 -205,115 -331,164 -166,74 -124,128 -336,84 -58,-11 -87,-17 -147,-14 -134,16 -219,70 -347,87 -73,10 -249,37 -310,77 -115,76 -178,58 -310,78 -34,5 -67,12 -100,19l-3 -14z"/>
    </g>
    <circle style="--delay: 0.0s" class="fil1 str1" cx="1422" cy="2182" r="132"/>
    <circle style="--delay: 0.2s" class="fil1 str1" cx="2311" cy="1775" r="224"/>
    <circle style="--delay: 0.4s" class="fil1 str1" cx="2936" cy="1284" r="70"/>
    <circle style="--delay: 0.6s" class="fil1 str1" cx="1496" cy="1423" r="160"/>
    <circle style="--delay: 0.8s" class="fil1 str1" cx="2692" cy="2050" r="114"/>
    <circle style="--delay: 0.6s" class="fil1 str1" cx="3247" cy="2147" r="197"/>
    <circle style="--delay: 0.4s" class="fil1 str1" cx="3959" cy="1473" r="166"/>
    <circle style="--delay: 0.2s" class="fil1 str1" cx="3646" cy="1893" r="94"/>
    <circle style="--delay: 0.0s" class="fil1 str1" cx="1941" cy="2323" r="58"/>
    <circle style="--delay: 0.2s" class="fil1 str1" cx="573" cy="2010" r="101"/>
    <path class="fil2 str1" d="M3733 1112c0,0 6,-51 0,0z"/>
   </g>
  </g>
  <polygon class="fil3" points="0,0 4133,0 4133,2400 0,2400 "/>
 </g>
</svg>
