<?xml version="1.0" encoding="UTF-8"?>
<!DOCTYPE svg PUBLIC "-//W3C//DTD SVG 1.1//EN" "http://www.w3.org/Graphics/SVG/1.1/DTD/svg11.dtd">
<!-- Creator: CorelDRAW X7 -->
<svg xmlns="http://www.w3.org/2000/svg" xml:space="preserve" width="15in" height="8.5in" version="1.1" style="shape-rendering:geometricPrecision; text-rendering:geometricPrecision; image-rendering:optimizeQuality; fill-rule:evenodd; clip-rule:evenodd"
viewBox="0 0 15000 8500"
 xmlns:xlink="http://www.w3.org/1999/xlink">
 <defs>
  <style type="text/css">
   <![CDATA[
    .str1 {stroke:rgb(0, 0, 0);stroke-width:10.7756;animation:bobbing-motion 2s ease-in-out alternate infinite; animation-delay: var(--delay)}
    .str0 {stroke:rgb(0, 0, 0);stroke-width:10.7756;animation:water-motion 2s ease-in-out alternate infinite; animation-delay:var(--delay)}
    .fil2 {fill:none}
    .fil0 {fill:none;fill-rule:nonzero}
    .fil1 {fill:rgb(65, 25, 93)}
    @keyframes bobbing-motion {
      0% {transform:translateX(0) translateY(0);}
      100% {transform:translateX(50px) translateY(200px);}
    }
    @keyframes water-motion {
      0% {transform:translateX(0) translateY(0);}
      50% {transform:translateX(100px) translateY(50px)}
      100% {transform:translateX(200px) translateY(90px);}
    }
   ]]>
  </style>
   <clipPath id="id0">
    <path d="M0 0l15000 0 0 8500 -15000 0 0 -8500z"/>
   </clipPath>
 </defs>
 <g id="Layer_x0020_1">
  <metadata id="CorelCorpID_0Corel-Layer"/>
  <g>
  </g>
  <g style="clip-path:url(#id0)">
   <g>
    <path style="--delay: 0.0s" class="fil0 str0" d="M-638 10687c774,0 1549,6 2322,3 678,-1 916,-364 1713,-104 728,237 686,134 1387,10 312,-55 521,-12 818,78 537,172 396,275 1033,147 458,-91 403,-101 827,-36 579,88 1046,-39 1596,-176 586,-136 828,57 1395,78 456,6 733,37 1187,-70 1374,-325 1834,385 2890,348 576,-25 1239,-147 1809,-257 93,-17 186,-39 278,-61 -22,130 -13,80 -193,113 -491,89 -1022,218 -1515,244 -955,36 -930,-94 -1829,-335 -573,-154 -999,-74 -1557,33 -290,56 -695,34 -1000,33 -330,-1 -555,-53 -856,-67 -419,-20 -926,214 -1428,235 -333,14 -561,-18 -877,-92 -269,-62 -737,74 -1059,94 -295,12 -533,-168 -856,-228 -744,-134 -849,119 -1413,105 -639,-15 -691,-348 -1511,-175 -440,93 -502,136 -988,136 -724,0 -1448,0 -2173,0l0 -56z"/>
    <path style="--delay: 0.5s" class="fil0 str0" d="M-638 10437c672,0 1354,13 2023,5 673,-7 1059,-428 1849,-129 665,252 657,184 1360,42 421,-86 682,-21 1056,188 517,297 545,214 1111,31 406,-124 437,-23 656,-70 126,-26 389,-118 533,-159 193,-57 835,-328 942,-335 319,-21 741,484 1563,436 446,-26 508,-21 940,-140 111,-30 219,-54 332,-77 890,-175 1781,736 2758,495 428,-107 465,-144 916,-165 474,-21 833,-119 1286,-241 -33,129 -24,78 -242,129 -424,90 -707,135 -1141,172 -112,10 -186,20 -295,47 -897,224 -993,199 -1888,-115 -812,-286 -929,-389 -1774,-152 -377,101 -927,132 -1314,67 -437,-74 -852,-433 -1214,-329 -213,60 -445,174 -667,245 -120,35 -721,202 -821,191 -517,-61 -774,204 -1218,195 -530,-75 -625,-511 -1484,-360 -796,139 -674,206 -1432,-67 -673,-242 -1144,152 -1812,152 -674,0 -1348,0 -2023,0l0 -56z"/>
    <path style="--delay: 1.0s" class="fil0 str0" d="M-638 10187c422,0 1640,39 1972,-38 632,-146 894,-376 1585,-130 880,312 661,265 1554,95 412,-79 683,-34 1039,192 582,397 540,307 1172,34 412,-165 475,-13 762,-130 383,-157 675,-240 1062,-429 460,-210 463,-6 859,256 1085,717 1700,-308 2730,-94 92,19 153,42 239,75 545,227 868,511 1521,498 460,-25 625,-219 1071,-163 727,92 944,95 1618,-247 39,-20 271,-163 221,-55 -18,39 -662,287 -765,313 -502,130 -681,41 -1145,28 -495,-15 -654,309 -1385,130 -126,-31 -243,-70 -365,-112 -775,-276 -806,-600 -1753,-366 -275,70 -516,159 -776,229 -1034,277 -1490,-618 -1835,-534 -111,28 -415,187 -549,248 -99,41 -867,332 -927,335 -222,9 -193,-60 -473,44 -343,128 -609,338 -973,176 -526,-291 -588,-496 -1287,-381 -751,124 -695,240 -1440,-46 -1008,-388 -1249,128 -2159,128 -524,-1 -1048,0 -1573,0l0 -56z"/>
    <path style="--delay: 1.5s" class="fil0 str0" d="M-638 9937c448,0 902,6 1348,1 698,-8 1208,-514 2019,-160 847,371 765,270 1633,107 412,-78 734,-24 1082,211 698,499 573,186 1235,-68 214,-82 414,26 750,-68 433,-125 706,-246 1111,-433 343,-158 406,59 678,289 567,481 1112,375 1716,51 473,-253 1004,-194 1476,30 766,387 858,472 1724,175 385,-114 470,22 844,124 607,164 1076,49 1594,-293 106,-70 162,-108 284,-149 -28,101 -49,51 -188,130 -445,252 -654,423 -1206,415 -405,-5 -573,-121 -922,-192 -389,-79 -696,341 -1458,145 -583,-171 -729,-534 -1474,-496 -685,50 -670,249 -1207,383 -993,247 -1363,-627 -1634,-632 -88,-2 -254,79 -338,116 -165,75 -321,155 -490,222 -250,91 -653,258 -915,216 -343,-55 -542,169 -877,312 -459,182 -607,-377 -1227,-453 -957,-98 -989,432 -2092,-67 -897,-406 -1324,138 -2117,140 -450,1 -899,0 -1349,0l0 -56z"/>
    <path style="--delay: 2.0s" class="fil0 str0" d="M-638 9687c390,0 1183,33 1524,-43 822,-185 1076,-339 1884,36 898,417 1167,-149 2012,-33 191,26 311,65 479,158 522,319 484,366 1016,67 516,-267 528,-55 1033,-146 544,-103 765,-219 1264,-407 350,-131 392,216 721,435 526,351 1153,107 1660,-127 339,-156 681,-104 1035,-10 164,44 300,97 454,165 801,363 695,220 1469,-21 499,-137 585,102 1071,235 654,177 1091,11 1636,-329 28,-17 329,-197 273,-73 -2,5 -110,31 -136,44 -289,135 -400,297 -784,408 -937,273 -1486,-319 -1824,-273 -581,78 -718,483 -1452,158l-49 -22c-429,-199 -919,-413 -1408,-332 -257,43 -575,293 -956,372 -1123,235 -1254,-684 -1600,-627 -114,19 -532,219 -667,275 -322,118 -817,262 -1159,201 -322,-58 -503,133 -793,282 -456,229 -628,-305 -1225,-377 -675,-70 -1051,215 -1556,167 -647,-63 -703,-526 -1753,-328 -559,106 -558,201 -1195,201 -324,0 -649,0 -974,0l0 -56z"/>
    <path style="--delay: 2.5s" class="fil0 str0" d="M-638 9437c493,0 974,32 1457,-60 878,-169 1071,-175 1876,172 782,338 1064,-191 1901,-128 202,15 363,38 546,128 663,370 555,169 1181,-36 260,-85 429,0 711,-31 514,-56 777,-141 1260,-301 378,-117 379,-236 632,56 519,600 1473,185 2127,125 351,-32 1100,197 1452,294 910,236 1076,-439 1933,-133 745,267 1314,239 2040,-66 434,-183 488,-33 394,-46 -151,-20 -618,229 -815,290 -621,191 -1085,84 -1665,-142 -704,-276 -951,371 -1771,162 -54,-14 -108,-31 -162,-47 -452,-148 -1065,-364 -1539,-237 -593,158 -1499,422 -1963,-124 -268,-314 -235,-214 -670,-71 -210,69 -411,138 -625,197 -296,70 -647,149 -951,97 -567,-97 -728,536 -1435,136 -393,-228 -782,-258 -1223,-159 -903,202 -722,327 -1563,-37 -919,-398 -1379,16 -2229,17 -299,0 -599,0 -899,0l0 -56z"/>
    <path style="--delay: 3.0s" class="fil0 str0" d="M-638 9187c456,0 786,13 1245,-52 881,-125 1090,-91 1894,239 823,337 912,-130 1677,-179 211,-13 668,24 865,99 497,241 487,182 1015,-7 443,-143 545,-9 967,-76 485,-83 1010,-232 1480,-383 455,-146 180,172 807,177 667,4 1289,-21 1928,198 234,81 550,162 793,218 832,180 1043,-225 1787,-234 773,-7 1502,-71 2271,-143 253,-24 546,-16 771,127 25,16 72,85 -22,39 -353,-172 -1001,8 -1412,39 -457,34 -769,14 -1216,-5 -104,-4 -213,-2 -317,-1 -961,7 -832,503 -2117,134 -832,-234 -1083,-265 -1958,-263 -300,1 -756,77 -953,-162 -154,-187 -232,-85 -483,-12 -272,80 -584,179 -857,245 -351,77 -623,139 -977,91 -341,-46 -613,194 -977,240 -315,25 -448,-208 -747,-233 -825,-68 -742,-21 -1473,195 -645,189 -929,-216 -1583,-330 -619,-107 -1125,94 -1734,95 -224,0 -449,0 -674,0l0 -56z"/>
    <path style="--delay: 3.5s" class="fil0 str0" d="M-638 8937c413,0 672,6 1089,-53 746,-106 1111,-3 1784,289 920,400 892,-106 1683,-201 220,-26 656,31 902,44 293,15 306,228 784,89 389,-114 474,-181 876,-123 572,55 1347,-263 1904,-422 580,-149 342,92 811,23 737,-108 1279,26 1912,400 206,122 332,147 560,218 848,266 939,-134 1680,-245 484,-60 687,47 1159,-139 675,-266 1558,-482 2176,25 67,56 153,96 174,183 -406,-303 -530,-394 -1071,-391 -591,3 -935,151 -1471,313 -203,61 -431,43 -644,44 -815,6 -1098,507 -1886,273 -455,-135 -454,-126 -852,-344 -564,-309 -1106,-350 -1732,-263 -523,73 -130,-237 -878,-6l-68 21c-284,94 -667,205 -958,271 -312,64 -572,129 -886,79 -341,-55 -681,177 -1050,194 -250,-3 -306,-147 -630,-152 -885,-27 -663,-135 -1498,206 -623,255 -902,-96 -1503,-276 -713,-212 -1222,-3 -1915,-2 -150,1 -301,1 -452,1l0 -56z"/>
    <path style="--delay: 4.0s" class="fil0 str0" d="M-638 8687c416,0 652,-13 1059,-62 1159,-139 1661,559 2197,518 478,-36 619,-513 1488,-406 231,29 433,52 666,58 330,4 229,178 770,16 422,-121 472,-133 881,-70 573,59 1286,-259 1830,-430 583,-168 500,89 950,13 770,-132 1245,34 1876,466 156,107 218,136 399,195 913,298 888,-156 1645,-278 331,-44 1005,12 1227,-69 344,-126 509,-286 929,-362 569,-104 1078,54 1486,468 13,14 19,40 25,58 -453,-412 -837,-582 -1460,-480 -453,74 -625,237 -1009,378 -190,70 -586,44 -801,44 -786,1 -947,346 -1428,398 -337,14 -749,-125 -1020,-322 -1150,-837 -1909,-331 -2167,-439 -182,-77 -149,-107 -408,-62 -165,29 -354,94 -512,148 -492,173 -1147,388 -1668,309 -442,-85 -710,156 -1122,160 -204,-11 -219,-90 -516,-91 -857,-22 -788,-238 -1616,194 -597,312 -797,47 -1374,-192 -821,-339 -1233,-104 -2027,-104 -100,0 -200,0 -300,0l0 -56z"/>
    <path style="--delay: 3.5s" class="fil0 str0" d="M-638 8437c430,0 703,-37 1112,-68 1125,-86 1542,825 2176,471 479,-267 584,-451 1218,-385 289,29 566,88 860,114 340,26 223,149 702,4 824,-240 648,-1 1192,-59 605,-70 863,-200 1416,-394 860,-286 646,100 1159,36 781,-98 1176,15 1843,428 175,109 233,129 433,177 723,174 879,-312 1673,-319 351,-1 1024,55 1326,-85 483,-226 819,-375 1365,-260 248,53 668,245 842,429 9,9 19,38 24,50 -725,-599 -1339,-601 -2149,-202 -179,87 -230,112 -432,115 -300,0 -599,0 -898,0 -849,1 -986,518 -1732,323 -461,-120 -649,-383 -1127,-546 -433,-147 -742,-135 -1192,-78 -518,66 -236,-324 -1162,-3 -285,103 -580,215 -872,290 -359,83 -600,129 -959,53 -332,-69 -611,89 -946,152 -221,37 -330,-52 -566,-62 -847,-52 -1017,-327 -1833,189 -562,356 -753,75 -1315,-187 -779,-363 -1210,-127 -2008,-127l-150 0 0 -56z"/>
    <path style="--delay: 3.0s" class="fil0 str0" d="M-638 8187c456,1 920,-73 1354,-60 796,23 1126,782 1730,406 574,-356 540,-354 1267,-353 218,0 391,27 604,71 249,53 349,67 586,144 422,91 668,-246 1181,-148 1131,170 1962,-579 2555,-424 415,132 222,208 765,189 680,-24 884,56 1496,292 287,111 642,106 943,54 480,-101 547,-168 1078,-168 632,0 803,59 1390,-209 494,-221 792,-183 1310,-72 280,60 738,247 966,419 16,12 61,75 -14,22 -542,-387 -1231,-530 -1885,-417 -470,109 -498,287 -1098,300 -247,5 -499,3 -747,6 -658,9 -855,304 -1576,213 -362,-55 -695,-293 -1134,-375 -390,-73 -625,-11 -973,-32 -167,-10 -272,-64 -420,-136 -241,-121 -398,-73 -647,-5 -729,215 -1164,557 -1995,395 -300,-65 -515,34 -805,123 -330,101 -399,-8 -724,-61 -577,-96 -1240,-262 -1775,63 -528,320 -526,444 -1155,88 -812,-459 -923,-343 -1803,-281 -162,12 -312,12 -474,12l0 -56z"/>
    <path style="--delay: 2.5s" class="fil0 str0" d="M-638 7937c520,0 1402,-143 1854,68 613,287 558,403 1162,98 283,-143 406,-165 730,-166 499,-2 603,-111 1171,23 305,72 328,103 582,207 393,107 626,-221 1096,-156 1196,129 1691,-449 2429,-414 421,44 625,263 1092,302 400,33 655,33 1065,109 437,82 802,4 1243,-31 231,-19 452,-30 685,-33 1091,-1 850,7 1833,-386 554,-222 743,-61 1243,162 272,118 515,223 784,349 66,30 241,73 219,127 -2,3 -693,-322 -758,-347 -290,-112 -790,-355 -1085,-342 -599,97 -834,464 -1561,485 -249,3 -500,1 -749,2 -480,7 -934,103 -1389,117 -254,8 -688,-133 -996,-162 -747,-72 -576,84 -1354,-253 -254,-111 -455,-56 -711,13 -339,96 -649,243 -1001,327 -374,78 -597,87 -965,25 -270,-46 -521,74 -783,153 -304,91 -401,-58 -706,-138 -502,-133 -642,-135 -1154,-91 -723,54 -492,7 -1121,305 -544,257 -788,-302 -1439,-339 -452,-25 -892,42 -1341,42l-75 0 0 -56z"/>
    <path style="--delay: 2.0s" class="fil0 str0" d="M-638 7687c542,0 1386,-96 1877,64 610,200 490,146 1075,-14 208,-57 359,-50 569,-50 615,0 979,-235 1638,80 397,191 311,296 811,110 508,-181 662,-69 1175,-124 547,-68 865,-264 1335,-346 512,-81 744,41 1212,185 582,186 354,203 1018,208 371,4 541,-13 906,-55 252,-28 485,-47 739,-52l81 -1c760,0 1237,77 1952,-259 585,-275 866,-265 1471,-20 329,134 648,299 975,442 111,47 195,70 314,92 10,81 13,61 -148,10 -760,-276 -1452,-900 -2284,-602 -470,189 -675,361 -1226,378l-82 3c-325,2 -649,1 -973,3 -548,13 -1034,117 -1575,94 -535,-23 -658,9 -1168,-193 -300,-120 -492,-195 -821,-208 -539,-3 -1014,261 -1539,364 -283,49 -521,46 -807,23 -233,-21 -451,79 -666,152 -415,141 -445,-70 -830,-199 -506,-170 -708,-97 -1198,-42 -515,49 -543,-27 -1059,156 -648,230 -728,-154 -1425,-167 -463,-9 -892,23 -1347,24l0 -56z"/>
    <path style="--delay: 1.5s" class="fil0 str0" d="M-638 7437c410,0 813,5 1222,7 360,1 334,-46 713,39 464,103 813,-38 1287,-44l149 -2c670,-9 1103,-323 1797,112 621,385 498,95 1081,-11 223,-40 549,-44 797,-80 443,-69 818,-244 1209,-300 421,-45 1063,108 1478,223 521,144 357,176 939,139 537,-34 981,-92 1531,-88 355,2 704,14 1060,5 593,-29 670,-138 1184,-319 435,-154 921,26 1348,167 155,51 310,110 464,165 293,106 556,245 870,247 3,93 -4,66 -115,51 -231,-32 -862,-312 -1142,-410 -344,-117 -824,-310 -1181,-236 -536,111 -681,347 -1376,388 -95,5 -187,7 -282,8 -350,1 -699,2 -1049,4 -501,6 -927,100 -1401,111 -424,10 -787,-159 -1192,-252 -467,-108 -522,-203 -1054,-142 -437,57 -823,257 -1315,318 -203,25 -403,30 -607,34 -187,2 -445,118 -625,180 -396,134 -499,-144 -884,-282 -576,-206 -1021,25 -1610,24 -383,-1 -561,65 -902,91 -374,28 -558,-113 -956,-97 -377,16 -807,-1 -1196,4 -81,1 -161,2 -242,2l0 -56z"/>
    <path style="--delay: 1.0s" class="fil0 str0" d="M-638 7187c372,0 718,25 1081,31 412,7 439,-125 868,-67 323,44 786,34 1123,36 825,0 1249,-372 2065,143 560,343 605,24 1211,-68 538,-83 906,-175 1427,-323 604,-162 863,47 1435,151 439,80 682,113 1123,65 332,-36 828,32 1201,31 644,0 1771,59 2353,-132 914,-300 678,-216 1568,70 364,116 1250,315 1613,283 87,-13 69,-40 64,59 -401,54 -933,-142 -1340,-238 -337,-79 -552,-184 -859,-275 -546,-160 -897,175 -1436,251 -177,25 -360,33 -539,35 -740,1 -1469,6 -2209,-2 -402,-4 -584,50 -1003,-16 -403,-64 -708,-131 -1100,-224 -653,-154 -1097,123 -1733,241 -199,34 -400,58 -600,81 -150,18 -446,146 -600,197 -531,174 -613,-553 -1818,-365 -451,72 -631,88 -1087,91 -401,3 -549,26 -958,-35 -266,-40 -455,67 -771,60 -366,-8 -709,-24 -1079,-24l0 -56z"/>
    <path style="--delay: 1.5s" class="fil0 str0" d="M-638 6937c383,1 694,46 1058,59 439,16 482,-160 924,-135 341,20 606,23 954,60 706,76 1011,-308 1843,42 99,41 193,89 288,139 540,280 647,-7 1167,-91 303,-49 825,-175 1121,-269 596,-190 682,-225 1248,25 399,176 992,276 1407,114 399,-155 417,-107 857,-19 312,63 496,74 819,75 603,1 1546,31 2108,-98 1003,-230 677,-121 1591,205 418,149 1126,134 1564,55l63 -11c150,-29 165,-90 149,44 -657,132 -1415,91 -2033,-175 -777,-334 -628,-217 -1429,-39 -314,69 -627,72 -947,75 -458,1 -1005,21 -1452,-5 -369,-21 -809,-213 -1152,-85 -500,187 -1122,90 -1596,-125 -336,-152 -544,-151 -897,-57 -533,155 -877,246 -1428,343 -155,27 -428,144 -591,196 -402,119 -673,-265 -1155,-358 -635,-104 -1062,133 -1660,65 -165,-18 -1018,-72 -1154,-39 -299,73 -285,132 -659,115 -352,-16 -644,-50 -1008,-50l0 -56z"/>
    <path style="--delay: 2.0s" class="fil0 str0" d="M-638 6687c426,0 725,68 1120,89 399,20 479,-146 851,-154 405,-10 662,11 1061,36 789,29 859,-241 1738,134 794,339 708,76 1464,-57 472,-82 908,-229 1369,-352 708,-154 810,301 1520,382 345,40 622,51 919,-138 236,-151 524,-49 802,-10 362,52 611,57 967,81 75,5 147,13 221,21 595,61 808,-67 1364,-116 386,-34 911,-133 1261,30 672,312 718,514 1527,327 321,-74 619,-171 946,-224 99,-15 83,-37 72,58 -621,110 -1315,406 -1933,161 -725,-289 -522,-441 -1393,-317 -304,43 -592,56 -886,94 -531,74 -1066,40 -1600,17 -297,-13 -1041,-199 -1230,-136 -259,88 -193,206 -631,212 -392,5 -718,-59 -1064,-248 -364,-198 -532,-218 -935,-106 -496,156 -873,258 -1392,339 -688,136 -575,375 -1342,31 -209,-94 -313,-138 -542,-177 -518,-56 -888,75 -1385,32 -285,-24 -974,-73 -1237,27 -498,189 -720,67 -1239,31 -132,-10 -261,-11 -393,-11l0 -56z"/>
    <path style="--delay: 2.5s" class="fil0 str0" d="M-638 6437c475,0 683,64 1129,119 414,51 512,-95 894,-132 417,-41 671,-35 1083,-24 746,10 756,-137 1493,195 843,380 1064,-31 1885,-172l55 -10c410,-71 624,-160 1004,-259 669,-124 781,289 1420,406 357,65 722,100 1045,-83 232,-131 598,-83 869,-78 452,9 629,43 1067,120 623,103 700,26 1258,-190 499,-192 1086,-51 1519,232 546,357 746,500 1364,189 335,-170 532,-260 913,-300 78,-5 153,-8 231,-11 -3,94 -2,56 -171,71 -567,67 -744,251 -1218,402 -637,204 -973,-378 -1556,-518 -540,-130 -828,-87 -1334,98 -346,126 -588,134 -944,80 -354,-62 -583,-95 -956,-116 -208,-12 -800,-76 -974,16 -349,185 -454,207 -875,162 -599,-65 -591,-191 -1080,-393 -114,-47 -176,-63 -298,-72 -138,-1 -262,32 -392,69 -415,127 -710,186 -1124,278 -948,212 -848,488 -1856,42 -482,-214 -1035,-104 -1547,-121 -345,-16 -944,-12 -1272,106 -440,159 -909,-31 -1393,-48 -80,-2 -159,-2 -239,-2l0 -56z"/>
    <path style="--delay: 3.0s" class="fil0 str0" d="M-638 6187c588,0 683,65 1225,163 335,60 543,-56 861,-109 582,-93 1647,-198 2178,68 690,348 831,373 1594,104 337,-119 560,-210 915,-287 219,-48 437,-114 653,-175 623,-147 783,212 1378,351 328,77 838,190 1157,56 327,-137 1210,-242 1522,-164 507,126 746,360 1305,106 561,-324 574,-594 1303,-283 446,190 953,827 1374,723 432,-106 620,-515 1275,-547l115 -5c124,-2 250,-1 375,-1l0 56c-607,1 -715,-15 -1230,306 -844,527 -963,81 -1680,-360 -367,-227 -832,-318 -1206,-50 -430,307 -652,345 -1165,243 -480,-109 -453,-195 -1001,-156 -222,16 -749,43 -955,144 -328,160 -708,91 -1059,20 -211,-42 -327,-79 -520,-169 -641,-305 -527,-351 -1248,-143 -153,44 -296,86 -452,120 -497,95 -1091,397 -1520,429 -568,42 -828,-360 -1388,-409 -591,-53 -1520,-30 -2086,136 -473,149 -890,-83 -1407,-107 -105,-6 -208,-4 -313,-4l0 -56z"/>
    <path style="--delay: 3.5s" class="fil0 str0" d="M-638 5937c699,1 663,44 1305,205 299,74 471,-31 756,-84 713,-131 1518,-303 2181,95 682,409 1081,208 1768,-1 298,-91 474,-204 796,-276 176,-40 341,-82 515,-130 607,-145 709,118 1286,244 369,80 1040,310 1384,219 347,-93 1025,-305 1336,-264 381,50 809,480 1316,221 151,-77 256,-192 357,-324 271,-339 455,-353 857,-200 270,103 376,180 569,379 88,92 425,333 530,362 219,59 441,-165 685,-253 666,-239 904,-198 1589,-193 0,19 0,37 0,56 -471,-1 -785,-62 -1224,133 -254,113 -424,180 -671,316 -348,193 -568,-116 -840,-320 -284,-212 -288,-298 -679,-435 -339,-119 -526,-109 -771,174 -324,384 -632,511 -1126,349 -503,-165 -424,-302 -1036,-185 -307,59 -613,135 -913,223 -309,90 -983,-112 -1312,-186 -262,-58 -438,-134 -679,-246 -247,-114 -427,-76 -679,-9 -369,106 -652,146 -1013,292 -351,142 -1039,380 -1407,338 -462,-53 -632,-338 -1111,-424 -621,-113 -1105,-14 -1715,93 -616,109 -378,187 -1089,-7 -393,-107 -561,-106 -965,-106l0 -56z"/>
    <path style="--delay: 4.0s" class="fil0 str0" d="M-638 5687c688,1 592,1 1240,173 407,108 404,-17 753,-21 648,-33 1180,-341 1875,-54 123,50 242,113 360,174 544,286 1108,37 1664,-66 363,-62 597,-191 958,-264 70,-14 134,-29 203,-46 501,-132 463,-167 952,20 408,142 757,106 1188,240 964,301 658,278 1531,-34 661,-237 623,-67 1182,180 184,81 282,87 478,55 676,-222 349,-1120 1526,-605 316,138 329,205 565,376 227,165 427,2 685,-54 504,-110 961,-76 1470,-74 70,0 571,20 582,72 12,53 -63,10 -140,1 -577,-55 -1669,-76 -2189,200 -250,132 -524,-212 -704,-330 -300,-197 -842,-463 -1151,-154 -349,348 -404,874 -1126,549l-120 -54c-588,-292 -619,-275 -1238,-44 -944,353 -809,59 -1733,-118 -415,-79 -461,-24 -897,-207 -105,-45 -150,-53 -263,-72 -427,-12 -1378,344 -1856,457 -510,120 -1031,332 -1527,45 -311,-181 -348,-220 -714,-283 -710,-79 -1003,91 -1662,155 -309,25 -258,134 -664,16 -623,-181 -570,-177 -1228,-177l0 -56z"/>
    <path style="--delay: 3.5s" class="fil0 str0" d="M-638 5437c460,0 764,-20 1224,58 271,46 289,33 551,13 234,-1 269,81 563,60 426,-30 904,-187 1304,-69 137,41 271,92 404,144 532,210 994,-137 1579,-158 303,-11 497,1 807,-51 174,-32 351,-62 523,-96 512,-109 496,-157 971,29 700,174 838,-63 1631,315 731,349 598,69 1326,-162 687,-217 817,298 1255,327 183,13 300,-97 408,-228 324,-464 512,-630 1099,-485 363,89 461,205 751,388 172,109 477,41 667,12 732,-112 1129,-179 1872,28 80,23 160,44 241,65 19,65 -61,8 -142,-14 -898,-234 -1475,-104 -2359,23 -237,34 -352,-132 -545,-248 -354,-213 -800,-388 -1183,-155l-77 46c-410,388 -353,901 -1170,443 -327,-182 -389,-271 -797,-145 -733,228 -601,504 -1387,150 -590,-266 -616,-191 -1217,-236 -188,-14 -329,-66 -504,-134 -98,-39 -136,-45 -241,-57 -511,4 -1125,281 -1714,280 -550,9 -836,173 -1317,215 -541,18 -738,-353 -1379,-285 -426,44 -798,156 -1225,83 -159,-33 -326,43 -568,7 -411,-61 -541,-108 -976,-107 -125,0 -250,0 -375,0l0 -56z"/>
    <path style="--delay: 3.0s" class="fil0 str0" d="M-638 5187c304,0 420,-3 722,-49 444,-53 811,-20 1223,152 622,261 1201,-174 1795,17 352,114 519,74 864,-50 802,-303 833,-235 1651,-186 164,10 291,8 455,-9 237,-30 525,-85 760,-67 376,51 287,185 844,184 539,0 829,-34 1329,193 650,294 572,-2 1196,-128 910,-185 867,414 1329,286 503,-179 364,-761 1468,-570 790,136 585,562 1607,315 709,-170 1007,-64 1669,179 12,4 239,67 243,88 4,25 -616,-203 -709,-224 -566,-109 -779,-86 -1331,34 -256,55 -554,93 -789,-45 -414,-244 -732,-428 -1240,-324 -728,151 -628,1005 -1386,495 -506,-363 -868,-154 -1374,70 -470,208 -670,-158 -1182,-265 -247,-52 -573,-38 -831,-40 -498,-4 -498,-143 -803,-177 -170,-19 -354,9 -522,36 -542,84 -730,43 -1250,21 -696,-30 -806,157 -1395,307 -478,88 -586,-199 -1162,-110 -447,68 -838,178 -1271,2 -339,-137 -955,-150 -1317,-101 -195,30 -395,22 -593,22l0 -56z"/>
    <path style="--delay: 2.5s" class="fil0 str0" d="M-638 4937c391,-6 1157,-148 1474,-45 467,151 432,333 1068,267 384,-40 776,-213 1160,-112 307,81 590,-34 873,-146 773,-315 998,-222 1781,-157 430,31 733,-132 1220,36 432,174 308,150 813,149 427,2 776,-3 1203,54 504,67 737,-108 1241,-90 356,12 639,-4 942,195 340,223 504,8 822,-162 580,-300 1079,-204 1641,56 781,360 958,-113 1770,41 255,49 549,183 789,287 43,18 354,115 353,128 -2,32 -94,-10 -135,-23 -264,-83 -464,-205 -752,-290 -868,-249 -1246,170 -1792,11 -287,-84 -395,-238 -806,-317 -533,-103 -831,-6 -1270,300 -593,418 -503,-101 -1191,-133 -532,-24 -579,6 -1070,115 -370,82 -655,-78 -1050,-99 -242,-12 -523,-9 -769,-10l-75 0c-556,1 -500,-164 -898,-212 -400,-33 -695,77 -1117,23 -921,-117 -1144,-52 -1987,300 -314,102 -576,-72 -1002,-7 -493,76 -960,237 -1427,-12 -531,-283 -851,-175 -1416,-108 -138,16 -255,17 -393,17l0 -56z"/>
    <path style="--delay: 2.0s" class="fil0 str0" d="M4632 4454c411,-23 775,41 1194,-9 398,-57 704,-65 1081,95 422,196 443,145 920,145 602,1 771,52 1357,-174 513,-197 750,5 1273,94 382,64 563,48 937,194 145,57 374,-48 516,-99 742,-256 1104,-115 1796,97 612,187 784,-13 1370,31 255,19 407,76 645,164 332,121 420,230 817,286 -15,76 -25,47 -171,9 -658,-196 -807,-453 -1586,-419 -589,26 -572,160 -1164,-55 -645,-235 -1079,-298 -1725,-41l-167 67c-400,153 -485,-60 -897,-120 -369,-54 -1150,-215 -1478,-132 -441,112 -444,148 -924,151 -300,0 -600,0 -899,0 -560,0 -533,-200 -987,-257 -425,-42 -712,60 -1126,32 -879,-60 -982,0 -1789,272 -522,152 -536,-83 -1056,8 -435,77 -1063,312 -1471,92 -483,-261 -628,-232 -1166,-183 -192,17 -375,31 -568,39 3,-107 -16,-53 170,-66 471,-33 952,-124 1384,87 393,192 419,207 881,122 369,-68 859,-273 1209,-180 232,62 245,70 500,48 281,-38 588,-228 941,-276l108 -15z"/>
    <path style="--delay: 1.5s" class="fil0 str0" d="M4761 4262c337,1 530,0 869,-63 454,-90 800,-91 1231,95 424,198 573,140 1043,142 645,2 644,-31 1165,-339 485,-249 719,68 1215,203 534,146 1221,156 1770,93 632,-65 986,-17 1579,171 678,216 1162,-17 1868,200l154 47c429,124 452,196 951,102 -29,160 15,135 -227,131 -485,-30 -832,-297 -1411,-338 -683,-48 -698,95 -1398,-120 -878,-269 -1016,-144 -1882,-80 -143,10 -257,9 -399,0 -599,-48 -960,-96 -1512,-332 -340,-146 -466,-110 -790,75 -545,322 -849,244 -1460,244 -644,1 -518,-169 -1016,-265 -546,-74 -906,85 -1450,78 -580,-7 -757,37 -1303,171 -881,203 -546,-352 -1704,36 -351,118 -709,340 -1054,180 -402,-188 -459,-238 -931,-245 -142,-3 -283,5 -424,14 -89,6 -179,12 -268,18 8,-112 15,-60 228,-73 489,-28 867,-29 1306,206 358,191 546,43 898,-97 364,-145 874,-342 1251,-159 247,120 302,118 588,82 340,-55 538,-162 928,-173l111 -4z"/>
    <path style="--delay: 1.0s" class="fil0 str0" d="M4811 4105c306,0 454,-44 749,-103l146 -30c1012,-177 959,215 1671,216 734,1 906,67 1497,-401 296,-234 439,-109 765,42 1242,542 1600,232 2836,296 580,31 703,69 1260,249 371,121 697,135 1083,137 296,2 470,45 750,71 74,7 121,5 194,1 221,-23 580,-339 828,-465 77,-40 152,-71 232,-104 -87,292 -8,171 -294,321 -516,274 -536,389 -1125,269 -566,-115 -1116,2 -1708,-193 -666,-219 -937,-231 -1639,-228 -354,1 -707,33 -1062,37 -527,1 -917,-156 -1389,-365 -657,-299 -548,11 -1124,273 -345,157 -726,112 -1104,111 -705,-2 -631,-405 -1687,-218 -466,92 -534,127 -1021,118 -408,-2 -930,87 -1290,58 -497,-40 -545,-351 -1223,-131 -303,98 -867,462 -1054,477 -160,12 -410,-184 -634,-246 -133,-36 -249,-56 -386,-74 -233,-28 -452,-20 -685,-7 7,-107 -15,-60 182,-65 450,-9 851,39 1248,266 333,190 466,4 769,-175 392,-231 869,-427 1314,-248 453,181 552,150 1041,129 260,-12 509,-24 771,-21z"/>
    <path style="--delay: 1.5s" class="fil0 str0" d="M4767 3918c728,32 977,-356 1871,-112 508,162 504,131 1039,131 585,3 643,-163 1065,-481 314,-236 519,51 867,207 1077,435 1685,126 2774,204 726,53 967,140 1632,419 376,158 811,60 1208,32 769,-56 757,-540 1442,-756 97,-30 176,-45 275,-61 -3,121 1,56 -187,110 -667,203 -744,578 -1105,710 -149,55 -766,60 -970,73 -706,47 -929,-254 -1602,-383 -734,-140 -1454,-65 -2192,-41 -710,21 -1026,-136 -1635,-464 -430,-232 -503,127 -912,355 -319,177 -683,132 -1034,131 -681,-4 -688,-346 -1606,-177 -733,147 -625,165 -1386,101 -353,-25 -644,15 -969,3 -589,-21 -803,-464 -1543,-66 -218,117 -682,508 -858,474 -71,-14 -360,-175 -494,-224 -350,-126 -578,-150 -951,-144 -104,3 -84,22 -81,-52 502,-10 904,48 1347,294 305,169 392,7 651,-189 364,-276 810,-468 1267,-321 526,170 409,177 987,175 351,-1 673,11 1023,45z"/>
    <path style="--delay: 2.0s" class="fil0 str0" d="M4027 3605c678,17 625,212 1429,33 443,-99 682,-141 1138,-40 376,88 1043,166 1400,8 504,-224 637,-646 1128,-340 1257,772 1230,168 2409,305 965,108 1408,10 2308,523 456,260 728,151 1212,4 406,-124 581,-292 936,-497 315,-177 540,-282 909,-296 37,75 -42,25 -216,61 -669,159 -922,603 -1630,787 -1283,333 -935,-105 -2047,-371 -492,-117 -1162,-140 -1675,-151l-74 -2c-752,-15 -950,286 -1770,-126 -96,-48 -179,-98 -270,-154 -524,-335 -534,-63 -1046,239 -330,195 -574,150 -941,149 -730,-3 -736,-292 -1635,-89 -731,166 -596,119 -1311,21 -415,-47 -572,7 -959,37 -701,54 -979,-685 -1997,96 -564,432 -396,243 -1070,21 -232,-77 -430,-96 -674,-103 -70,-1 -160,27 -160,-22 1,-10 1,-21 1,-31 626,6 736,79 1300,288 337,125 504,-198 818,-382 525,-308 782,-177 1281,11 457,173 655,17 1120,20l86 1z"/>
    <path style="--delay: 2.5s" class="fil0 str0" d="M4287 3445c873,195 734,97 1575,-79 426,-88 775,66 1217,71 735,7 647,-23 1292,-350 844,-374 842,750 2135,233 600,-226 715,-60 1277,53 761,129 1016,15 1759,456 637,378 665,424 1383,68 705,-349 815,-763 1777,-726l60 3c65,3 47,-8 73,30 -1061,-20 -1164,429 -1997,786 -828,355 -790,95 -1487,-240 -683,-329 -1147,-233 -1837,-384 -83,-19 -166,-37 -249,-56 -579,-117 -741,179 -1314,193 -541,-8 -828,-426 -1165,-471l-44 -6c-370,-28 -669,469 -1364,466 -75,-1 -150,-1 -225,-1 -686,-2 -781,-220 -1539,-24 -855,219 -677,114 -1476,-15 -700,-88 -828,246 -1505,-40 -774,-327 -932,-182 -1569,215 -353,219 -473,31 -869,-58l-101 -22c-234,-47 -436,-56 -673,-61 0,-18 -1,-35 -1,-52 486,17 681,58 1145,183 418,113 477,-95 837,-277 458,-232 753,-162 1200,32 705,307 848,-90 1588,54l97 19z"/>
    <path style="--delay: 3.0s" class="fil0 str0" d="M4079 3252c855,206 818,185 1666,-61 479,-138 773,-8 1258,-4 700,6 653,-87 1266,-292 696,-193 851,419 1527,376 413,-51 701,-282 1186,-258 279,15 426,36 693,119 771,195 952,52 1732,510 761,447 714,516 1512,-39 604,-419 851,-768 1667,-598l91 19c69,16 48,1 74,48 -1064,-214 -1215,245 -2043,731 -756,444 -672,192 -1400,-193 -440,-232 -745,-302 -1233,-356 -573,-72 -876,-308 -1510,-153 -138,33 -257,84 -388,137 -498,190 -813,1 -1241,-241 -633,-364 -906,251 -1709,247l-149 0c-616,-2 -809,-163 -1437,25 -869,259 -803,174 -1636,1 -720,-118 -746,289 -1467,-14 -439,-185 -724,-261 -1203,-99 -386,131 -404,246 -866,209 -372,-45 -672,-97 -1055,-112 -1,-18 -1,-35 -2,-52 411,21 1129,149 1482,45 655,-208 843,-343 1524,-70 503,203 455,204 946,76 267,-69 450,-59 715,-1z"/>
    <path style="--delay: 3.5s" class="fil0 str0" d="M3847 3033c887,267 1026,199 1888,-76 409,-131 773,-21 1193,-20 629,3 732,-138 1263,-225 648,-76 844,399 1455,351 348,-40 922,-286 1210,-249 204,26 311,86 553,100 546,33 1274,189 1757,441 851,465 778,626 1631,-48 266,-210 376,-332 699,-485 411,-170 694,-67 1101,33 72,17 51,-1 73,52 -1167,-283 -1221,10 -2114,661 -642,469 -578,275 -1239,-94 -468,-261 -730,-342 -1255,-426 -272,-45 -462,-84 -740,-114 -724,-79 -459,-133 -1201,75 -460,129 -576,175 -1042,-34 -101,-45 -199,-95 -297,-145 -553,-289 -1014,163 -1704,162l-75 0c-623,0 -791,-144 -1415,71 -727,240 -943,224 -1677,28 -716,-163 -846,276 -1464,23 -455,-187 -696,-260 -1201,-198 -421,53 -577,158 -1063,152 -260,-9 -519,-38 -780,-50 0,-18 -1,-36 -2,-53 622,32 870,95 1505,-51 1136,-246 1415,279 1945,247 374,-22 423,-272 996,-128z"/>
    <path style="--delay: 4.0s" class="fil0 str0" d="M3630 2771c810,276 1133,199 1936,-63 481,-158 666,-32 1140,-22 538,10 826,-127 1301,-148 651,-29 650,237 1197,297 391,24 801,-44 1148,-229 503,-268 521,75 1028,151 228,34 396,-16 662,27 404,64 661,110 1050,255 782,300 722,237 1429,-226 487,-318 733,-434 1321,-324 260,61 494,142 762,185 14,89 1,51 -173,8 -1153,-281 -1134,-237 -2101,465 -640,464 -702,176 -1378,-86 -447,-167 -889,-264 -1367,-249 -592,19 -750,-381 -1227,-124 -326,175 -894,264 -1252,171 -136,-35 -242,-80 -369,-140 -651,-344 -1200,37 -1934,27 -616,-9 -669,-146 -1313,74l-55 18c-1279,450 -1668,-125 -2073,-38 -749,190 -521,367 -1330,31 -84,-36 -147,-56 -234,-83 -725,-168 -1124,65 -1837,49 -189,-4 -380,-14 -569,-23 -1,-18 -2,-37 -3,-55 577,28 836,35 1416,-52 670,-93 818,-19 1424,219 710,278 813,-267 1401,-115z"/>
    <path style="--delay: 3.5s" class="fil0 str0" d="M2091 2685c685,255 818,-337 1410,-148 752,240 1152,27 1840,-156 652,-152 889,133 1541,14 636,-116 771,-186 1424,10 564,178 488,315 1165,187 600,-109 373,-59 883,-381 466,-294 866,440 1423,360 411,-59 759,-5 1195,-68 235,-33 432,-83 656,-159 681,-245 908,-409 1665,-218 51,14 102,30 153,46 412,135 697,263 1146,265 0,19 0,37 0,56 -975,-27 -1190,-612 -2376,-204 -1026,364 -740,366 -1854,315 -271,-11 -339,-10 -600,25 -626,84 -936,-650 -1459,-281 -393,276 -319,227 -798,315 -301,55 -531,38 -817,-71 -546,-265 -965,-293 -1563,-170 -604,123 -658,48 -1221,-12 -668,-63 -1244,526 -2262,216 -526,-160 -424,-60 -947,128l-42 15c-381,133 -613,-116 -1003,-218 -703,-168 -1298,2 -2013,-21 -86,-3 -172,-7 -258,-11 0,-19 -1,-39 -2,-58 509,23 849,-2 1351,-33 535,-34 874,51 1363,257z"/>
    <path style="--delay: 3.0s" class="fil0 str0" d="M1991 2495c581,164 808,-344 1267,-222 967,257 1654,-396 2142,-357 611,74 599,375 1365,183 806,-203 798,-132 1546,170 627,252 626,202 1266,52 596,-141 681,-854 1734,-268 642,359 365,265 1058,147 340,-58 641,-165 966,-278 181,-63 347,-106 535,-144 1078,-205 1518,409 2497,409 75,0 150,0 225,0l0 56c-887,0 -889,-164 -1639,-370 -1092,-277 -1494,229 -2518,383 -216,33 -298,52 -508,109 -244,67 -513,-152 -737,-274 -427,-231 -727,-315 -1121,15 -303,253 -445,278 -834,345 -210,36 -382,47 -587,-14 -275,-103 -498,-217 -796,-310l-59 -19c-767,-235 -1043,308 -1805,40 -124,-43 -230,-76 -358,-108 -451,-106 -852,202 -1324,303 -390,83 -632,86 -1007,-16 -304,-81 -501,90 -796,208 -362,142 -597,-64 -956,-164 -766,-201 -1406,-89 -2178,-115 -1,-20 -2,-39 -2,-59 987,26 1408,-126 2390,216 78,27 156,55 234,82z"/>
    <path style="--delay: 2.5s" class="fil0 str0" d="M1700 2231c634,226 636,-67 1138,-202 190,-52 357,76 656,30 613,-92 799,-242 1328,-461 780,-279 956,368 1633,187 628,-167 998,-101 1554,182 488,244 634,328 1156,170 574,-170 424,-154 906,-447 327,-198 728,-199 1097,-134 520,92 577,447 1032,369 421,-72 755,-187 1161,-292 798,-196 1218,-24 1963,195 490,143 769,109 1268,109l0 56c-901,0 -831,-3 -1668,-265 -762,-238 -1237,-156 -1972,87 -228,70 -891,270 -1107,175 -328,-146 -423,-276 -825,-369 -901,-209 -988,336 -1621,508 -520,141 -682,217 -1187,-35 -172,-88 -327,-159 -504,-233 -791,-318 -1220,227 -1819,-30 -440,-189 -554,-333 -1066,-132 -227,90 -438,201 -669,285 -280,92 -667,198 -958,119 -477,-128 -717,258 -1110,266l-52 -2c-195,-22 -660,-226 -911,-288 -575,-131 -1172,-80 -1760,-84 -1,-91 12,-56 186,-56 973,-2 1197,-61 2151,292z"/>
    <path style="--delay: 2.0s" class="fil0 str0" d="M1526 1966c704,281 614,-19 1158,-171 249,-70 361,102 834,-32 447,-128 669,-274 1069,-460 714,-292 1115,248 1693,87 459,-129 657,-1 1115,130 561,160 921,552 1495,409 634,-162 494,-118 1029,-425 449,-258 642,-195 1135,-225 616,-38 772,403 1263,363 125,-10 241,-32 362,-56 1082,-243 1204,-234 2310,16 531,120 988,85 1528,85l75 0 0 56c-653,0 -1005,43 -1652,-124 -1196,-307 -1292,-180 -2412,59 -773,135 -643,-242 -1312,-330 -149,-20 -798,7 -928,46 -417,127 -563,390 -1045,507 -717,175 -661,209 -1341,-138 -131,-68 -249,-118 -388,-166 -270,-89 -773,-227 -1047,-165 -468,107 -394,115 -880,-50 -357,-121 -658,-153 -1005,11 -393,197 -1102,583 -1542,469 -353,-92 -479,60 -820,215 -379,167 -646,-62 -1026,-191 -615,-196 -1198,-146 -1832,-143 0,-19 0,-37 0,-56 900,-3 1297,-79 2164,279z"/>
    <circle style="--delay: 0.0s" class="fil1 str1" cx="4579" cy="6001" r="750"/>
    <circle style="--delay: 0.5s" class="fil1 str1" cx="8755" cy="6407" r="556"/>
    <circle style="--delay: 1.0s" class="fil1 str1" cx="11741" cy="6071" r="278"/>
    <circle style="--delay: 1.5s" class="fil1 str1" cx="14983" cy="6752" r="375"/>
    <circle style="--delay: 2.0s" class="fil1 str1" cx="14329" cy="3529" r="562"/>
    <circle style="--delay: 2.5s" class="fil1 str1" cx="12436" cy="1366" r="479"/>
    <circle style="--delay: 3.0s" class="fil1 str1" cx="9890" cy="2758" r="750"/>
    <circle style="--delay: 2.5s" class="fil1 str1" cx="4912" cy="3085" r="340"/>
    <circle style="--delay: 2.0s" class="fil1 str1" cx="8561" cy="-9" r="750"/>
    <circle style="--delay: 1.5s" class="fil1 str1" cx="1186" cy="4657" r="375"/>
    <circle style="--delay: 1.0s" class="fil1 str1" cx="2940" cy="2668" r="576"/>
    <circle style="--delay: 1.5s" class="fil1 str1" cx="7200" cy="3713" r="750"/>
    <circle style="--delay: 2.0s" class="fil1 str1" cx="5832" cy="1450" r="375"/>
    <circle style="--delay: 2.5s" class="fil1 str1" cx="880" cy="532" r="375"/>
    <circle style="--delay: 3.0s" class="fil1 str1" cx="9412" cy="7751" r="250"/>
   </g>
  </g>
  <polygon class="fil2" points="0,0 15000,0 15000,8500 0,8500 "/>
 </g>
</svg>
