<?xml version="1.0" encoding="UTF-8"?>
<!DOCTYPE svg PUBLIC "-//W3C//DTD SVG 1.1//EN" "http://www.w3.org/Graphics/SVG/1.1/DTD/svg11.dtd">
<!-- Creator: CorelDRAW X7 -->
<svg xmlns="http://www.w3.org/2000/svg" xml:space="preserve" width="4.13333in" height="2.4in" version="1.1" style="shape-rendering:geometricPrecision; text-rendering:geometricPrecision; image-rendering:optimizeQuality; fill-rule:evenodd; clip-rule:evenodd"
viewBox="0 0 4133 2400"
 xmlns:xlink="http://www.w3.org/1999/xlink">
 <defs>
  <style type="text/css">
   <![CDATA[
    .str0 {stroke:rgb(105, 96, 100);stroke-width:4.0;animation:bobbing-motion 2s ease-in-out alternate infinite;animation-delay:var(--delay)}
    .str3 {stroke:rgb(105, 96, 100);stroke-width:3.33071}
    .str2 {stroke:rgb(105, 96, 100);stroke-width:3.33071;animation:bobbing-motion 2s ease-in-out alternate infinite;animation-delay:var(--delay)}
    .str1 {stroke:rgb(105, 96, 100);stroke-width:3.33071}
    .fil1 {fill:none}
    .fil0 {fill:none;fill-rule:nonzero}
    .fil3 {fill:rgb(25, 23, 27)}
    .fil2 {fill:rgb(105, 96, 100)}
    @keyframes bobbing-motion {
      0% {transform:translateX(0) translateY(0);}
      100% {transform:translateX(50px) translateY(50px);}
    }
   ]]>
  </style>
 </defs>
 <g id="Layer_x0020_1">
  <metadata id="CorelCorpID_0Corel-Layer"/>
  <g id="_327422576">
   <path style="--delay: 0.0s" class="fil0 str0" d="M4344 3681c-218,-41 -436,-81 -654,-123 -190,-36 -238,-151 -476,-121 -217,28 -200,2 -391,-70 -85,-33 -146,-32 -234,-22 -161,20 -126,56 -299,-14 -124,-50 -108,-50 -231,-54 -167,-6 -292,-67 -440,-134 -157,-70 -236,-29 -397,-53 -128,-23 -208,-29 -330,-83 -369,-164 -537,11 -832,-56 -161,-38 -341,-107 -495,-168 -26,-10 -51,-21 -75,-33 -1,38 -1,24 48,42 133,52 276,116 413,150 267,61 267,23 533,3 169,-13 285,32 437,93 78,31 193,46 279,62 93,17 159,15 245,27 119,16 249,109 389,142 93,22 159,25 252,21 79,-3 203,60 293,83 82,19 159,-19 253,-19 217,2 233,79 392,105 181,30 213,-61 435,31 119,50 134,65 271,91 204,39 407,77 611,116l3 -16z"/>
   <path style="--delay: 0.5s" class="fil0 str0" d="M4358 3611c-189,-36 -382,-69 -570,-107 -189,-38 -275,-176 -514,-134 -200,35 -194,16 -385,-61 -114,-47 -190,-42 -307,-4 -161,56 -165,32 -314,-50 -108,-57 -122,-30 -181,-55 -34,-14 -103,-53 -142,-73 -51,-26 -217,-137 -247,-144 -89,-23 -234,96 -463,39 -124,-31 -142,-33 -258,-89 -29,-15 -58,-27 -89,-40 -241,-96 -540,113 -802,-7 -115,-53 -124,-66 -249,-95 -133,-32 -229,-78 -349,-137 2,38 2,23 61,49 114,48 192,76 312,110 31,8 51,15 80,28 241,111 269,109 538,69 243,-37 282,-60 507,51 101,49 254,87 367,89 126,3 262,-76 359,-28 56,29 116,73 175,105 31,16 192,95 220,97 149,11 207,99 333,120 153,7 203,-110 437,-22 216,81 179,94 406,57 203,-32 314,104 502,140 190,35 380,71 570,107l3 -15z"/>
   <path style="--delay: 1.0s" class="fil0 str0" d="M4371 3540c-119,-22 -464,-76 -553,-115 -170,-75 -232,-154 -439,-122 -265,42 -200,40 -443,-56 -112,-44 -190,-45 -302,-1 -186,81 -169,58 -332,-53 -107,-68 -133,-29 -208,-77 -99,-65 -177,-104 -276,-177 -118,-84 -130,-27 -255,26 -344,144 -462,-177 -764,-172 -26,1 -45,4 -71,8 -166,35 -271,98 -455,60 -128,-32 -164,-95 -292,-103 -210,-13 -271,-24 -443,-156 -10,-8 -67,-60 -59,-27 3,12 171,116 199,129 134,63 189,47 321,68 140,23 167,122 382,111 38,-2 73,-7 109,-12 233,-37 259,-126 513,-10 74,35 137,72 206,106 277,133 453,-95 545,-53 30,14 107,75 142,99 25,17 226,140 243,144 62,15 57,-6 131,38 89,54 153,127 264,101 163,-54 192,-108 382,-39 205,75 183,105 408,64 305,-55 345,103 601,151 148,28 295,56 443,84l3 -16z"/>
   <path style="--delay: 1.5s" class="fil0 str0" d="M4384 3470c-126,-24 -254,-46 -379,-72 -196,-39 -313,-209 -560,-152 -258,59 -230,35 -465,-57 -112,-44 -206,-46 -316,2 -223,103 -171,21 -344,-85 -56,-35 -118,-15 -208,-59 -115,-58 -185,-107 -289,-181 -88,-63 -118,-6 -207,45 -185,105 -332,46 -485,-77 -120,-97 -272,-108 -417,-70 -237,68 -267,87 -495,-43 -102,-53 -133,-19 -244,-10 -180,14 -306,-44 -433,-168 -26,-25 -40,-38 -72,-57 2,30 11,17 46,47 112,95 161,154 317,181 114,20 168,-3 270,-5 114,-1 178,133 403,119 173,-17 233,-112 441,-61 190,50 175,105 319,172 267,122 417,-104 494,-91 25,4 67,36 89,51 42,29 82,60 126,88 65,39 170,108 246,110 99,2 144,76 230,134 120,76 191,-74 370,-62 274,23 255,174 592,93 274,-67 365,109 589,152 126,24 253,48 379,72l3 -16z"/>
   <path style="--delay: 2.0s" class="fil0 str0" d="M4397 3400c-109,-21 -334,-54 -426,-94 -222,-96 -285,-153 -532,-90 -275,69 -321,-104 -565,-116 -55,-3 -91,1 -143,19 -164,62 -156,77 -290,-36 -131,-102 -145,-43 -283,-96 -147,-58 -203,-102 -334,-182 -91,-55 -121,40 -226,84 -167,71 -330,-31 -460,-124 -87,-62 -187,-66 -291,-58 -49,4 -90,12 -137,22 -245,60 -207,25 -412,-84 -133,-65 -170,-2 -314,9 -194,15 -308,-55 -443,-180 -7,-6 -82,-72 -73,-34 0,1 29,14 36,19 74,53 97,105 199,157 249,126 435,-11 528,20 159,53 176,174 400,122l15 -4c131,-33 281,-67 414,-18 70,25 146,113 249,156 304,125 390,-126 484,-92 31,11 138,90 173,113 85,51 216,117 316,118 93,1 134,65 208,122 116,89 193,-52 365,-41 193,16 284,117 429,130 185,17 226,-111 511,1 151,60 146,86 325,120 92,18 183,35 275,52l2 -15z"/>
   <path style="--delay: 2.5s" class="fil0 str0" d="M4411 3329c-139,-26 -276,-43 -407,-94 -238,-95 -292,-107 -537,-52 -238,53 -290,-110 -529,-137 -57,-7 -104,-9 -160,7 -206,69 -165,18 -331,-73 -68,-38 -120,-23 -198,-47 -142,-43 -211,-81 -339,-152 -100,-53 -94,-86 -180,-18 -178,142 -425,-26 -606,-78 -97,-28 -320,-3 -424,6 -269,18 -280,-181 -537,-141 -224,36 -383,-3 -571,-127 -112,-75 -135,-35 -108,-34 43,2 161,97 214,125 164,87 301,82 476,49 213,-40 248,155 490,140 16,-1 32,-3 48,-5 135,-17 319,-46 446,16 158,76 399,198 559,69 92,-74 77,-48 192,16 56,30 108,60 166,88 79,36 174,77 262,78 165,3 177,190 397,115 122,-43 234,-31 352,21 244,105 186,130 442,73 280,-63 388,77 627,123 84,16 169,32 253,48l3 -16z"/>
   <path style="--delay: 3.0s" class="fil0 str0" d="M4424 3259c-128,-24 -222,-38 -347,-81 -242,-82 -302,-84 -546,-34 -250,51 -250,-85 -463,-139 -58,-15 -189,-29 -249,-19 -152,42 -146,25 -285,-56 -117,-64 -153,-31 -268,-73 -132,-49 -272,-119 -396,-186 -121,-66 -60,39 -237,6 -188,-34 -362,-74 -553,-46 -70,10 -164,16 -235,19 -244,6 -281,-119 -490,-161 -217,-43 -419,-100 -632,-162 -70,-20 -153,-33 -224,-5 -8,3 -25,20 4,12 109,-30 282,56 396,86 127,34 216,45 342,64 30,4 60,11 90,16 270,53 207,186 588,151 247,-22 319,-17 565,30 85,16 209,62 277,5 54,-44 70,-11 137,23 72,37 155,81 228,114 95,40 168,73 270,78 99,5 163,87 262,119 88,24 138,-34 223,-25 236,25 210,33 404,133 172,88 273,-11 464,-8 180,2 311,86 482,119 64,12 127,23 190,35l3 -15z"/>
   <path style="--delay: 3.5s" class="fil0 str0" d="M4437 3188c-116,-22 -189,-34 -303,-73 -204,-69 -313,-60 -518,-13 -280,63 -245,-78 -463,-146 -60,-20 -186,-27 -256,-36 -83,-12 -98,48 -225,-17 -104,-53 -124,-76 -240,-81 -164,-15 -365,-146 -514,-220 -155,-73 -101,7 -229,-37 -202,-70 -362,-61 -560,11 -64,23 -101,23 -169,31 -253,30 -257,-87 -460,-158 -133,-43 -196,-24 -319,-101 -176,-111 -413,-219 -613,-109 -22,12 -49,19 -59,42 130,-63 170,-82 322,-53 166,33 255,93 397,167 54,28 120,35 179,46 229,45 282,202 517,178 135,-14 134,-12 258,-52 175,-57 330,-39 501,19 144,48 49,-60 248,45l18 9c75,42 177,94 255,128 85,34 154,66 245,69 99,3 182,86 285,110 71,13 94,-25 186,-9 250,40 194,-3 410,138 162,105 259,21 438,2 212,-21 344,65 539,102 43,8 85,16 127,24l3 -16z"/>
   <path style="--delay: 3.0s" class="fil0 str0" d="M4451 3118c-117,-22 -183,-38 -295,-74 -319,-101 -497,69 -646,29 -132,-36 -147,-178 -397,-194 -67,-4 -125,-8 -191,-19 -93,-16 -74,38 -217,-36 -113,-57 -126,-63 -244,-67 -165,-14 -349,-141 -493,-219 -155,-78 -145,-1 -268,-47 -209,-77 -352,-56 -553,32 -49,22 -68,27 -122,33 -273,36 -242,-91 -449,-165 -91,-30 -283,-51 -341,-85 -90,-54 -128,-108 -242,-152 -155,-59 -307,-42 -444,53 -4,3 -7,10 -10,15 150,-92 267,-119 437,-58 123,45 163,101 264,161 49,30 162,43 223,55 221,42 248,148 380,188 95,22 218,5 305,-36 368,-175 555,8 633,-9 55,-12 48,-22 118,5 45,17 95,45 137,69 129,75 302,170 452,176 129,-1 192,81 308,104 58,8 66,-13 150,2 242,40 234,-25 444,141 152,120 222,56 397,19 250,-52 353,37 576,79 29,5 57,10 85,16l3 -16z"/>
   <path style="--delay: 2.5s" class="fil0 str0" d="M4464 3048c-121,-23 -196,-48 -309,-79 -312,-84 -478,150 -638,17 -120,-101 -140,-158 -322,-173 -83,-7 -164,-6 -248,-14 -97,-11 -71,30 -198,-36 -219,-112 -182,-35 -332,-80 -167,-52 -233,-103 -378,-187 -227,-126 -187,-6 -328,-51 -215,-70 -332,-59 -542,22 -55,21 -72,24 -131,27 -213,10 -231,-135 -454,-179 -99,-19 -291,-39 -369,-95 -124,-89 -210,-149 -370,-146 -73,2 -201,34 -260,76 -3,2 -7,10 -9,13 236,-130 409,-98 615,58 46,34 59,43 116,55 84,16 168,32 253,48 238,45 250,198 470,183 136,-9 203,-73 346,-94 130,-18 216,2 340,42 142,46 84,-79 327,61 75,44 152,91 230,128 97,42 162,68 267,66 97,-2 167,58 258,93 61,22 96,3 163,13 241,30 304,-38 506,151 139,130 208,61 380,17 238,-60 347,29 572,71l42 8 3 -15z"/>
   <path style="--delay: 2.0s" class="fil0 str0" d="M4477 2977c-128,-24 -254,-69 -377,-89 -226,-36 -359,160 -509,22 -143,-131 -133,-128 -338,-167 -61,-11 -111,-13 -174,-12 -73,2 -101,1 -172,10 -124,3 -175,-105 -325,-105 -327,-12 -521,-267 -696,-255 -124,15 -74,46 -226,12 -190,-43 -252,-31 -436,3 -87,15 -187,-5 -269,-36 -129,-53 -145,-76 -294,-104 -178,-34 -229,-26 -380,-133 -128,-89 -214,-94 -365,-90 -82,2 -221,30 -294,66 -6,3 -21,18 2,7 173,-80 375,-83 553,-17 126,56 125,108 293,143 69,15 140,28 210,42 185,37 225,131 433,144 104,3 211,-46 339,-45 113,0 176,30 275,42 48,6 80,-3 126,-15 74,-22 116,0 182,33 194,99 298,218 540,217 89,-2 144,37 221,77 87,46 112,19 206,22 168,4 364,-8 497,112 131,118 124,153 320,87 253,-86 278,-48 523,16 45,12 87,20 132,29l3 -16z"/>
   <path style="--delay: 1.5s" class="fil0 str0" d="M4491 2907c-147,-28 -387,-115 -526,-80 -188,48 -178,84 -332,-34 -72,-55 -106,-68 -196,-85 -141,-28 -164,-64 -331,-57 -90,4 -98,12 -175,28 -117,9 -165,-96 -300,-103 -344,-27 -453,-216 -662,-245 -121,-11 -190,40 -324,26 -114,-12 -186,-25 -305,-26 -128,0 -226,-41 -348,-75 -64,-17 -126,-32 -191,-45 -307,-59 -240,-44 -496,-207 -144,-92 -206,-57 -358,-20 -83,18 -157,35 -240,56 -20,5 -71,8 -68,24 0,1 212,-54 232,-57 87,-16 241,-58 324,-38 163,59 210,175 413,219 70,14 141,27 211,41 134,27 257,78 384,107 71,15 201,-1 290,7 213,20 157,54 394,1 77,-18 131,8 199,41 91,46 170,103 265,146 101,42 163,56 270,58 79,2 143,49 212,85 81,42 116,5 206,-1 149,-11 188,-4 330,36 201,53 138,28 299,145 140,102 238,-43 424,-19 128,17 248,60 375,84l21 4 3 -16z"/>
   <path style="--delay: 1.0s" class="fil0 str0" d="M4504 2837c-152,-29 -385,-101 -532,-82 -182,23 -145,15 -302,-62 -55,-27 -98,-33 -157,-44 -173,-33 -263,-118 -465,-65 -122,33 -103,67 -235,-12 -133,-78 -182,-55 -323,-98 -151,-48 -230,-120 -358,-168 -140,-50 -211,-28 -351,-13 -174,22 -110,39 -298,5 -104,-19 -151,-33 -252,-64 -69,-21 -134,-39 -205,-54l-23 -5c-213,-40 -352,-44 -535,-176 -150,-109 -230,-121 -413,-84 -100,20 -199,49 -298,72 -34,7 -59,9 -93,9 -8,23 -7,17 41,11 228,-37 456,-176 675,-48 122,78 170,138 325,172l23 5c91,18 182,35 273,53 154,33 285,88 439,110 151,22 184,38 339,8 90,-18 148,-29 242,-15 152,28 271,128 413,185 78,29 145,40 226,49 67,7 123,46 180,78 109,62 129,5 244,-11 152,-21 205,10 339,52 143,41 155,21 290,100 170,99 214,-5 410,29 131,22 250,54 378,78l3 -15z"/>
   <path style="--delay: 0.5s" class="fil0 str0" d="M4517 2766c-115,-22 -229,-42 -344,-63 -101,-19 -91,-31 -203,-27 -136,4 -226,-54 -360,-81l-41 -8c-188,-39 -294,-150 -512,-65 -196,76 -145,1 -304,-60 -60,-24 -152,-42 -220,-65 -121,-43 -217,-113 -324,-149 -116,-35 -305,-26 -428,-16 -155,13 -110,31 -272,-11 -149,-38 -271,-78 -426,-106 -100,-19 -199,-34 -299,-55 -165,-40 -181,-75 -316,-153 -114,-67 -261,-42 -388,-25 -47,6 -93,14 -140,22 -88,14 -169,39 -258,23 -6,26 -2,19 30,20 67,4 259,-42 343,-54 103,-15 249,-44 345,-4 145,60 173,134 367,183 26,6 52,12 79,17 98,19 196,38 295,57 141,28 255,78 388,106 119,25 230,-3 349,-8 137,-5 158,-29 304,17 120,39 218,116 354,159 55,18 111,30 169,42 52,11 119,57 166,84 104,59 148,-14 264,-32 173,-28 286,61 452,92 108,20 154,49 249,74 104,28 163,-2 274,24 105,24 227,42 336,65 23,4 46,9 68,13l3 -16z"/>
   <path style="--delay: 0.0s" class="fil0 str0" d="M4531 2696c-105,-20 -204,-31 -306,-49 -116,-20 -117,-59 -241,-65 -93,-5 -223,-33 -318,-50 -232,-44 -332,-171 -589,-69 -176,66 -171,-26 -337,-84 -147,-52 -246,-98 -384,-167 -162,-78 -246,-33 -412,-34 -128,-1 -198,-5 -320,-42 -91,-27 -235,-35 -340,-55 -181,-34 -501,-78 -655,-162 -241,-133 -179,-97 -445,-64 -109,13 -369,22 -469,-7 -24,-8 -18,-14 -21,14 110,36 270,9 390,4 99,-4 165,-22 256,-31 162,-17 243,97 391,147 48,16 99,28 150,38 208,40 413,80 622,117 113,21 161,45 283,49 117,4 206,1 321,-4 192,-9 303,93 475,160 54,20 110,37 165,55 41,13 118,65 158,87 140,77 202,-123 531,-6 123,45 173,58 301,84 113,22 154,36 272,41 77,3 124,43 214,58 103,17 201,31 305,51l3 -16z"/>
   <path style="--delay: 0.5s" class="fil0 str0" d="M4544 2625c-108,-20 -198,-24 -301,-39 -124,-19 -127,-71 -253,-87 -97,-13 -172,-26 -271,-34 -203,-17 -269,-141 -522,-87 -30,6 -59,15 -88,24 -167,50 -182,-36 -323,-88 -83,-30 -224,-93 -302,-135 -157,-86 -180,-100 -352,-60 -122,29 -294,25 -402,-42 -105,-66 -112,-53 -241,-52 -91,1 -143,-5 -234,-22 -170,-32 -437,-74 -588,-140 -270,-118 -185,-70 -459,-27 -126,20 -324,-22 -443,-68l-17 -6c-41,-17 -42,-34 -45,4 178,72 394,101 582,59 236,-53 188,-27 404,65 85,37 173,54 263,72 128,24 282,59 409,76 105,14 239,-17 329,37 130,80 311,85 455,50 103,-25 162,-13 256,32 142,72 234,116 384,172 42,16 112,64 156,87 106,55 203,-39 344,-39 184,5 292,94 463,107 48,3 291,33 327,50 81,37 74,53 180,68 100,14 184,20 286,39l3 -16z"/>
   <path style="--delay: 1.0s" class="fil0 str0" d="M4557 2555c-119,-22 -207,-19 -320,-35 -113,-15 -127,-66 -231,-88 -114,-25 -187,-32 -301,-47 -223,-33 -228,-113 -496,-54 -241,53 -203,-17 -409,-94 -128,-49 -243,-113 -366,-172 -192,-82 -245,41 -449,26 -99,-7 -177,-19 -251,-88 -58,-55 -145,-42 -225,-45 -105,-5 -175,-17 -277,-29 -21,-2 -42,-4 -63,-6 -171,-14 -224,-62 -378,-105 -107,-30 -249,-86 -356,-59 -206,52 -230,106 -448,11 -86,-38 -165,-81 -254,-114 -27,-9 -21,-14 -23,13 169,64 348,184 535,148 220,-43 171,-96 409,-15 84,28 164,47 245,74 145,49 298,68 449,90 84,12 304,-1 354,27 68,38 43,68 166,93 110,23 205,22 313,-13 113,-36 161,-33 269,20 131,71 231,119 373,170 186,75 142,136 376,80 64,-15 96,-22 162,-21 149,12 246,68 388,83 82,8 278,31 347,73 130,80 199,58 347,75 38,4 74,11 111,18l3 -16z"/>
   <path style="--delay: 1.5s" class="fil0 str0" d="M4571 2485c-134,-26 -196,-19 -324,-27 -120,-8 -139,-54 -245,-85 -115,-33 -187,-45 -304,-64 -210,-37 -205,-79 -430,-25 -258,62 -298,-65 -522,-149l-15 -5c-111,-42 -167,-79 -268,-127 -182,-70 -236,40 -422,39 -104,-1 -208,-10 -289,-79 -59,-50 -164,-56 -241,-68 -128,-22 -179,-22 -307,-23 -181,-5 -198,-31 -344,-121 -130,-81 -303,-72 -440,-16 -172,72 -236,101 -393,-19 -86,-66 -136,-102 -242,-133 -21,-6 -42,-11 -64,-16 -4,27 -2,16 44,29 156,50 196,111 322,179 168,91 294,-55 465,-63 159,-8 238,19 371,98 90,54 158,69 261,73 103,2 169,5 275,18 59,8 230,22 274,57 88,70 117,82 238,92 171,14 176,-22 324,-53 35,-7 53,-8 88,-4 39,7 72,22 107,40 110,58 190,90 301,138 256,110 213,183 520,111 148,-35 297,26 442,48 98,14 267,47 353,98 115,68 257,39 394,60 23,4 45,8 68,12l3 -15z"/>
  </g>
  <path style="--delay: 0.00s" class="fil1 str1" d="M1746 -243c-94,33 -889,288 -921,265 -41,-30 595,-208 645,-224 31,-9 310,-110 319,-74 5,20 -33,30 -43,33zm-887 173c90,-33 872,-279 902,-268 78,28 -251,112 -261,115 -197,59 -438,144 -633,188 -76,17 -82,-5 -8,-35zm-7 -57c94,-34 854,-278 890,-261 57,28 -215,97 -228,101 -59,18 -828,270 -705,181 13,-10 28,-15 43,-21zm-1 -59c92,-34 821,-267 860,-252 66,27 -249,108 -260,111 -37,11 -772,252 -644,162 14,-9 29,-15 44,-21zm6 -61c92,-34 771,-253 815,-238 74,24 -246,107 -255,109 -22,7 -737,241 -605,150 15,-9 29,-14 45,-21zm15 -64c88,-32 716,-238 760,-217 52,26 -247,103 -263,108 -2,0 -679,222 -543,131 15,-10 30,-15 46,-22zm27 -67c179,-65 427,-141 612,-188 58,-15 127,-3 16,36 -184,64 -435,142 -624,189 -107,27 -80,-7 -4,-37zm43 -73c36,-13 641,-218 573,-140 -11,12 -795,267 -624,163 18,-10 32,-15 51,-23zm75 -83c10,-3 451,-153 411,-91 -10,16 -662,224 -468,117 20,-12 36,-17 57,-26zm159 -95c90,-23 185,-30 17,24 -222,72 -172,21 -17,-24zm579 443c-96,33 -872,283 -908,261 -46,-29 586,-206 638,-222 38,-12 288,-99 311,-80 24,20 -36,39 -41,41zm2 58c-84,29 -864,284 -884,250 -19,-31 597,-205 648,-221 33,-10 262,-89 281,-70 21,20 -39,39 -45,41zm-4 61c-84,29 -819,272 -845,238 -23,-30 567,-196 613,-211 27,-8 273,-96 282,-66 6,22 -39,35 -50,39zm-13 63c-93,32 -861,286 -786,209 26,-27 812,-263 830,-258 40,12 -36,46 -44,49zm-23 66c-71,25 -773,259 -713,187 21,-25 744,-244 763,-237 36,13 -43,48 -50,50zm-39 71c-45,16 -653,222 -611,156 14,-23 654,-217 671,-209 32,15 -55,52 -60,53zm-63 79c-23,8 -487,167 -468,112 8,-22 532,-181 545,-171 24,18 -72,57 -77,59zm-137 102c-17,6 -200,59 -206,29 -4,-17 299,-99 333,-107 1,29 -104,70 -127,78z"/>
  <path style="--delay: 0.30s" class="fil2" d="M310 580c2,6 4,12 5,18l-430 131c-2,-6 -4,-12 -6,-18l431 -131zm-433 125c-2,-7 -3,-13 -4,-19l428 -130c3,5 5,11 7,17l-431 132zm-5 -26c-1,-6 -2,-12 -2,-19l420 -128c3,6 6,12 8,17l-426 130zm-3 -26c0,-6 0,-13 0,-19l406 -124c4,5 7,11 11,16l-417 127zm1 -27c1,-6 1,-13 3,-20l384 -117c4,5 9,10 13,15l-400 122zm4 -28c2,-7 4,-14 6,-21l355 -108c5,4 11,9 16,14l-377 115zm9 -29c2,-8 6,-15 9,-22l315 -97c7,4 14,9 21,14l-345 105zm13 -31c5,-8 10,-16 16,-24l261 -80c9,3 18,7 26,12l-303 92zm23 -34c8,-9 16,-19 26,-27l180 -55c12,2 25,5 37,8l-243 74zm40 -39c20,-15 44,-27 70,-35 26,-8 52,-11 78,-10l-148 45zm357 140c1,6 2,12 3,18l-423 129c-3,-5 -6,-11 -8,-17l428 -130zm3 25c1,7 1,13 1,20l-410 125c-4,-5 -7,-11 -10,-17l419 -128zm1 27c-1,7 -1,14 -2,20l-391 119c-4,-5 -9,-10 -13,-15l406 -124zm-3 28c-2,7 -3,14 -5,21l-364 111c-5,-5 -11,-10 -16,-15l385 -117zm-8 29c-2,7 -5,15 -8,22l-327 100c-7,-5 -13,-9 -19,-14l354 -108zm-12 30c-4,8 -8,16 -13,24l-278 85c-8,-4 -16,-8 -24,-13l315 -96zm-20 33c-6,9 -14,18 -22,26l-206 63c-11,-2 -22,-5 -33,-9l261 -80zm-33 37c-17,15 -36,28 -58,37l-53 16c-23,5 -46,5 -69,2l180 -55z"/>
  <circle style="--delay: 0.0s" class="fil3 str2" cx="177" cy="1673" r="155"/>
  <circle style="--delay: 0.2s" class="fil3 str2" cx="1977" cy="1985" r="180"/>
  <circle style="--delay: 0.6s" class="fil3 str2" cx="1424" cy="2796" r="213"/>
  <circle style="--delay: 0.8s" class="fil3 str2" cx="870" cy="2480" r="144"/>
  <circle style="--delay: 0.6s" class="fil3 str2" cx="1568" cy="2259" r="80"/>
  <circle style="--delay: 0.4s" class="fil3 str2" cx="307" cy="2276" r="95"/>
  <circle style="--delay: 0.2s" class="fil3 str2" cx="2995" cy="2264" r="155"/>
  <path style="--delay: 0.60s" class="fil2" d="M4786 -142c5,16 9,31 12,47l-1107 338c-6,-15 -11,-30 -16,-46l1111 -339zm-1116 322c-4,-15 -8,-31 -11,-47l1104 -337c7,15 12,30 18,45l-1111 339zm-14 -65c-2,-16 -4,-32 -5,-49l1082 -330c8,15 16,29 23,44l-1100 335zm-6 -67c-1,-17 -1,-34 0,-50l1045 -319c10,13 20,27 29,42l-1074 327zm2 -69c1,-18 3,-36 6,-53l990 -302c13,13 24,26 36,40l-1032 315zm10 -72c4,-19 9,-38 15,-56l914 -278c15,11 30,24 43,37l-972 297zm22 -76c7,-20 15,-39 25,-58l812 -248c18,10 36,22 53,34l-890 272zm36 -80c11,-22 25,-43 39,-63l673 -205c23,9 46,19 68,30l-780 238zm57 -87c20,-25 43,-49 68,-71l463 -141c33,4 65,12 96,21l-627 191zm103 -100c53,-40 114,-72 181,-92 67,-20 135,-28 201,-24l-382 116zm922 358c3,17 5,33 7,49l-1090 332c-8,-14 -15,-29 -21,-44l1104 -337zm8 67c1,17 2,34 1,50l-1056 322c-10,-13 -19,-27 -27,-42l1082 -330zm1 69c-1,17 -3,35 -5,52l-1007 307c-12,-13 -23,-26 -33,-40l1045 -319zm-8 71c-4,19 -8,37 -13,55l-937 285c-14,-12 -28,-24 -41,-38l991 -302zm-19 75c-6,19 -13,39 -22,57l-843 257c-17,-11 -34,-22 -50,-35l915 -279zm-32 79c-10,21 -21,41 -34,61l-716 218c-21,-9 -42,-20 -62,-31l812 -248zm-50 84c-17,24 -36,47 -57,68l-531 162c-29,-6 -58,-14 -85,-25l673 -205zm-86 95c-43,39 -93,72 -149,96l-137 42c-60,11 -119,11 -177,4l463 -142z"/>
  <path style="--delay: 0.90s" class="fil1 str3" d="M3919 1707c-58,20 -548,177 -567,163 -25,-19 366,-128 397,-138 19,-6 190,-68 196,-45 4,12 -20,18 -26,20zm-546 106c55,-20 536,-171 555,-165 48,17 -155,69 -161,71 -121,37 -269,88 -389,116 -47,10 -51,-3 -5,-22zm-4 -35c57,-21 525,-171 547,-160 36,17 -132,60 -140,62 -36,11 -510,166 -434,111 8,-6 18,-9 27,-13zm-1 -36c57,-21 505,-165 529,-155 41,17 -153,66 -160,68 -23,7 -475,155 -396,100 8,-6 18,-9 27,-13zm4 -37c56,-21 474,-156 502,-147 45,15 -152,66 -158,67 -13,4 -453,148 -372,93 9,-7 18,-10 28,-13zm9 -40c54,-19 441,-147 468,-134 32,16 -153,64 -162,67 -1,0 -418,136 -334,80 9,-6 18,-9 28,-13zm17 -41c110,-40 262,-87 376,-116 36,-9 78,-2 10,22 -113,39 -268,88 -384,117 -66,16 -49,-5 -2,-23zm26 -45c22,-8 394,-134 352,-87 -6,8 -489,165 -383,101 11,-6 19,-9 31,-14zm46 -51c6,-2 278,-95 253,-56 -6,10 -407,138 -288,71 12,-6 22,-10 35,-15zm98 -59c56,-14 114,-18 11,15 -137,44 -106,13 -11,-15zm356 273c-59,20 -536,174 -558,160 -29,-18 360,-126 392,-136 24,-7 177,-61 192,-49 14,12 -23,24 -26,25zm2 36c-52,18 -532,175 -545,154 -11,-20 368,-127 400,-137 20,-6 161,-54 172,-43 13,13 -24,25 -27,26zm-3 37c-52,18 -504,168 -520,146 -14,-18 349,-120 378,-129 16,-5 167,-59 173,-41 3,14 -24,22 -31,24zm-8 39c-57,19 -530,176 -484,128 16,-16 500,-161 511,-158 25,7 -22,28 -27,30zm-14 41c-44,15 -476,159 -439,114 13,-15 458,-150 470,-146 22,9 -27,30 -31,32zm-24 43c-28,10 -402,137 -376,96 9,-14 402,-134 413,-129 20,10 -34,33 -37,33zm-39 49c-14,5 -300,103 -288,69 5,-14 327,-112 335,-105 15,11 -44,35 -47,36zm-84 63c-11,3 -123,36 -127,17 -2,-10 184,-60 205,-65 1,18 -64,43 -78,48z"/>
  <path style="--delay: 0.60s" class="fil3 str3" d="M1119 1781c-22,8 -202,66 -209,60 -9,-6 135,-47 146,-50 7,-2 70,-25 72,-17 1,5 -7,7 -9,7zm-201 40c20,-8 197,-64 204,-61 18,6 -57,25 -59,26 -45,13 -99,32 -144,42 -17,4 -18,-1 -1,-7zm-2 -13c21,-8 193,-63 201,-59 14,6 -48,22 -51,23 -13,4 -188,61 -160,40 3,-2 7,-3 10,-4zm0 -14c21,-7 186,-60 194,-57 16,6 -56,25 -58,25 -9,3 -175,57 -146,37 3,-2 6,-3 10,-5zm1 -13c21,-8 175,-58 185,-54 16,5 -56,24 -58,24 -5,2 -167,55 -137,34 3,-2 7,-3 10,-4zm4 -15c19,-7 162,-54 172,-49 12,6 -56,23 -60,24 0,0 -154,51 -123,30 4,-2 7,-3 11,-5zm6 -15c40,-15 96,-32 138,-43 13,-3 29,0 4,8 -42,15 -99,33 -141,43 -25,6 -18,-1 -1,-8zm10 -17c8,-3 145,-49 129,-31 -2,2 -180,60 -141,37 4,-3 7,-4 12,-6zm17 -18c2,-1 102,-35 93,-21 -3,4 -150,51 -107,26 5,-2 9,-3 14,-5zm35 -22c21,-5 42,-7 4,6 -50,16 -39,4 -4,-6zm131 100c-21,8 -197,64 -205,59 -10,-6 133,-46 145,-50 8,-3 65,-22 70,-18 5,4 -8,9 -10,9zm1 14c-19,6 -196,64 -200,56 -4,-7 135,-46 147,-50 7,-2 59,-20 63,-16 5,5 -9,9 -10,10zm-1 13c-19,7 -185,62 -191,54 -5,-7 128,-44 139,-48 6,-1 61,-21 63,-15 2,5 -8,8 -11,9zm-3 15c-21,7 -195,64 -178,47 6,-6 184,-60 188,-59 9,3 -8,11 -10,12zm-5 15c-16,5 -175,58 -161,42 4,-6 168,-56 172,-54 8,3 -10,11 -11,12zm-9 16c-10,3 -148,50 -138,35 3,-5 148,-49 152,-48 7,4 -13,12 -14,13zm-14 17c-5,2 -110,38 -106,26 2,-5 120,-41 123,-39 6,4 -16,13 -17,13zm-31 23c-4,2 -45,14 -47,7 -1,-4 68,-22 76,-24 0,6 -24,16 -29,17z"/>
  <path style="--delay: 0.30s" class="fil1 str1" d="M1949 956c-35,12 -326,105 -337,97 -15,-12 217,-77 236,-82 11,-4 113,-41 116,-27 2,7 -12,10 -15,12zm-325 63c33,-12 319,-102 330,-98 29,10 -92,41 -95,42 -72,22 -160,52 -232,69 -28,6 -30,-2 -3,-13zm-2 -21c34,-13 312,-102 325,-95 21,10 -79,35 -83,37 -22,6 -303,98 -258,66 5,-4 10,-6 16,-8zm0 -21c33,-13 300,-98 314,-93 24,10 -91,40 -95,41 -14,4 -283,92 -236,59 5,-3 11,-5 17,-7zm2 -23c33,-12 281,-92 298,-87 27,9 -90,39 -94,40 -8,3 -269,88 -221,55 5,-4 11,-5 17,-8zm5 -23c32,-12 262,-87 278,-80 19,10 -91,38 -96,40 -1,0 -249,81 -199,48 6,-4 11,-6 17,-8zm10 -25c65,-24 156,-51 224,-68 21,-6 46,-2 6,12 -68,24 -160,53 -229,70 -39,10 -29,-3 -1,-14zm16 -26c13,-5 234,-80 209,-52 -4,5 -290,98 -228,60 6,-4 12,-6 19,-8zm27 -31c4,-1 165,-56 150,-33 -3,6 -242,82 -171,43 7,-5 13,-7 21,-10zm58 -35c33,-8 68,-10 7,9 -82,26 -63,8 -7,-9zm212 162c-35,12 -319,104 -332,96 -17,-11 214,-75 233,-81 14,-5 105,-37 114,-29 9,7 -13,14 -15,14zm1 22c-31,10 -316,104 -324,91 -7,-11 219,-75 238,-81 11,-3 95,-32 102,-25 8,7 -14,14 -16,15zm-2 22c-31,10 -299,99 -309,87 -8,-11 207,-72 224,-77 10,-3 100,-35 103,-24 3,8 -14,12 -18,14zm-5 23c-34,12 -314,104 -287,76 9,-9 297,-96 303,-94 15,4 -13,17 -16,18zm-8 24c-26,9 -283,95 -261,68 8,-9 272,-89 279,-86 14,5 -16,17 -18,18zm-14 26c-17,6 -239,81 -224,57 6,-8 239,-79 246,-76 12,5 -21,19 -22,19zm-23 29c-9,3 -178,61 -171,41 2,-8 194,-66 199,-63 9,7 -26,21 -28,22zm-50 37c-7,2 -74,22 -76,11 -1,-6 110,-36 122,-39 1,10 -38,25 -46,28z"/>
 </g>
</svg>
