<?xml version="1.0" encoding="UTF-8"?>
<!DOCTYPE svg PUBLIC "-//W3C//DTD SVG 1.1//EN" "http://www.w3.org/Graphics/SVG/1.1/DTD/svg11.dtd">
<!-- Creator: CorelDRAW X7 -->
<svg xmlns="http://www.w3.org/2000/svg" xml:space="preserve" width="4.13333in" height="2.4in" version="1.1" style="shape-rendering:geometricPrecision; text-rendering:geometricPrecision; image-rendering:optimizeQuality; fill-rule:evenodd; clip-rule:evenodd"
viewBox="0 0 4133 2400"
 xmlns:xlink="http://www.w3.org/1999/xlink">
 <defs>
  <style type="text/css">
   <![CDATA[
    .str0 {stroke:rgb(135, 42, 201);stroke-width:3}
    .str1 {stroke:rgb(135, 42, 201);stroke-width:3}
    .fil0 {fill:none}
    .fil2 {fill:rgb(253, 235, 244)}
    .fil1 {fill:rgb(220, 179, 249)}
   ]]>
  </style>
 </defs>
 <g id="Layer_x0020_1">
  <metadata id="CorelCorpID_0Corel-Layer"/>
  <path class="fil0 str0" d="M3282 594c-41,0 -81,8 -118,21 35,1 70,1 105,0 46,0 91,0 136,2 -38,-15 -80,-23 -123,-23zm-148 34c-23,11 -45,25 -65,41 65,5 132,2 200,-1 76,-3 153,-6 228,2 -17,-14 -36,-26 -56,-37 -57,-4 -114,-4 -172,-4 -45,1 -91,1 -135,-1zm-80 53c-15,13 -28,27 -40,42 82,11 168,5 254,-2 95,-7 190,-14 280,1 -9,-12 -20,-24 -32,-35 -80,-12 -164,-8 -247,-5 -73,3 -146,6 -215,-1zm-50 55c-10,14 -19,29 -27,45 92,16 191,5 291,-7 105,-12 211,-24 312,-5 -6,-11 -12,-21 -19,-30 -94,-19 -193,-11 -292,-4 -90,7 -180,14 -265,1zm-34 58c-6,15 -12,30 -17,45 101,19 207,4 315,-12 112,-16 226,-33 334,-11 -4,-10 -8,-21 -13,-31 -103,-22 -212,-9 -320,3 -102,12 -203,24 -299,6zm-20 59c-4,16 -7,33 -9,50 105,19 215,-2 326,-23 117,-22 234,-44 348,-22 -2,-9 -4,-18 -7,-26 -110,-24 -225,-8 -338,9 -110,16 -218,32 -320,12zm-10 64c-1,7 -1,13 -1,20 0,13 1,25 2,38 106,13 215,-14 326,-42 118,-29 237,-58 354,-40 0,-7 -1,-14 -3,-20 -113,-23 -231,-1 -348,21 -113,21 -224,42 -330,23zm3 72c3,20 8,39 14,57 102,4 205,-28 309,-59 118,-36 238,-73 358,-59 0,-7 0,-14 -1,-21 -117,-19 -236,11 -353,40 -111,27 -220,54 -327,42zm19 71c8,20 17,39 28,56 92,-7 184,-42 276,-76 117,-44 235,-88 358,-80 0,-6 0,-12 0,-18 -119,-14 -237,22 -354,58 -103,32 -206,63 -308,60zm37 70c11,16 23,31 37,46 77,-17 153,-50 229,-83 115,-49 231,-99 354,-98 2,-7 3,-14 3,-21 -120,-7 -236,36 -351,79 -91,34 -181,68 -272,77zm49 57c14,14 30,26 46,36 57,-20 114,-48 171,-76 112,-55 224,-111 346,-116 2,-7 4,-14 6,-21 -120,-1 -234,48 -346,96 -74,32 -148,64 -223,81zm61 46c16,9 34,18 52,24 35,-18 69,-37 104,-57 107,-61 215,-122 335,-136 2,-6 5,-12 7,-19 -118,7 -227,61 -336,114 -54,27 -108,53 -162,74zm70 31c16,5 33,9 51,12 12,-8 23,-15 35,-23 100,-64 202,-129 317,-151 4,-7 8,-15 11,-23 -114,15 -218,75 -321,133 -31,18 -62,35 -93,52zm73 14c10,1 20,1 30,1 6,0 12,0 18,0 81,-56 163,-109 255,-136 6,-8 12,-16 17,-25 -108,24 -204,86 -300,147 -7,4 -13,9 -20,13zm76 -2c84,-11 158,-53 211,-113 -75,25 -144,67 -211,113z"/>
  <path class="fil1" d="M3026 2181c5,16 10,32 13,49l-1159 353c-6,-15 -12,-31 -17,-48l1163 -354zm-1168 337c-4,-17 -8,-33 -11,-50l1155 -352c7,15 13,31 19,47l-1163 355zm-14 -68c-3,-17 -5,-34 -6,-51l1133 -346c8,15 16,30 24,46l-1151 351zm-7 -70c0,-18 0,-36 1,-53l1093 -334c11,14 21,29 30,44l-1124 343zm2 -73c2,-19 4,-37 7,-55l1036 -316c13,13 25,27 37,42l-1080 329zm11 -76c5,-19 10,-39 16,-57l957 -292c15,12 30,25 44,39l-1017 310zm23 -79c8,-21 16,-41 26,-61l850 -259c19,11 38,23 55,36l-931 284zm38 -84c12,-22 25,-44 41,-65l704 -215c24,9 48,20 71,32l-816 248zm60 -90c21,-27 44,-52 70,-75l485 -148c34,5 68,13 100,23l-655 200zm108 -105c55,-42 118,-75 189,-96 70,-22 141,-30 210,-26l-399 122zm964 375c3,17 5,34 7,51l-1140 347c-8,-15 -16,-30 -23,-46l1156 -352zm8 69c2,18 2,36 2,53l-1106 337c-10,-14 -19,-29 -28,-44l1132 -346zm1 72c-1,19 -3,37 -5,55l-1054 321c-12,-13 -23,-27 -34,-42l1093 -334zm-9 75c-3,20 -7,39 -13,57l-980 299c-15,-12 -29,-26 -43,-40l1036 -316zm-19 78c-6,21 -14,41 -23,60l-882 269c-18,-11 -35,-23 -52,-37l957 -292zm-33 83c-11,22 -23,43 -36,64l-749 228c-22,-10 -44,-21 -65,-33l850 -259zm-53 88c-18,25 -38,49 -60,71l-555 170c-30,-7 -60,-15 -89,-26l704 -215zm-90 100c-45,40 -97,74 -155,100l-144 44c-62,11 -125,12 -185,3l484 -147z"/>
  <path class="fil1" d="M2489 -98c2,6 3,12 5,18l-429 131c-2,-6 -4,-12 -6,-18l430 -131zm-432 125c-2,-6 -3,-13 -4,-19l427 -130c2,6 5,12 7,18l-430 131zm-5 -25c-1,-7 -2,-13 -3,-19l419 -128c3,5 6,11 9,17l-425 130zm-3 -26c0,-7 0,-13 0,-20l405 -123c3,5 7,10 11,16l-416 127zm1 -27c0,-7 1,-14 2,-21l383 -117c5,5 10,11 14,16l-399 122zm4 -28c1,-7 3,-15 6,-22l353 -107c6,4 12,9 17,14l-376 115zm8 -30c3,-7 6,-15 10,-22l314 -96c7,4 14,9 21,13l-345 105zm14 -30c5,-9 10,-17 15,-25l261 -79c9,3 18,7 26,11l-302 93zm22 -34c8,-10 17,-19 26,-27l180 -55c12,2 25,4 37,8l-243 74zm40 -39c21,-15 44,-27 70,-35 26,-8 52,-11 78,-10l-148 45zm357 139c1,6 2,12 3,19l-422 128c-3,-5 -6,-11 -8,-17l427 -130zm3 26c1,6 1,13 1,19l-409 125c-4,-5 -8,-11 -11,-17l419 -127zm0 26c0,7 -1,14 -2,20l-389 119c-5,-5 -9,-10 -13,-15l404 -124zm-3 28c-1,7 -3,14 -5,21l-362 111c-6,-5 -11,-10 -16,-15l383 -117zm-7 29c-2,7 -5,15 -8,22l-327 99c-6,-4 -13,-8 -19,-13l354 -108zm-12 30c-4,8 -9,16 -14,24l-276 84c-9,-3 -17,-7 -25,-12l315 -96zm-20 33c-6,9 -14,18 -22,26l-205 63c-12,-2 -23,-6 -33,-10l260 -79zm-33 37c-17,15 -36,27 -58,37l-53 16c-23,4 -46,5 -68,1l179 -54z"/>
  <path class="fil0 str1" d="M3844 916c2,-175 -22,-205 124,-314 169,-126 123,-270 231,-430 34,-50 76,-88 122,-127 21,-17 43,-34 64,-51 96,-74 193,-131 302,-183l0 59c-158,77 -391,225 -473,384 -88,180 -33,252 -218,401 -167,135 -70,184 -110,363 -4,21 -10,39 -17,59 -28,75 -110,233 -43,297 93,87 312,36 165,303 -88,163 -109,172 -27,347 41,85 116,121 198,157 250,107 127,327 396,388 47,11 83,16 130,32 -1,82 19,57 -86,25 -159,-49 -217,-64 -315,-216 -81,-126 -73,-144 -214,-221 -100,-57 -145,-138 -188,-242 -71,-198 111,-286 81,-405 -30,-116 -257,-84 -241,-210 3,-25 13,-53 21,-78 39,-113 92,-215 98,-338z"/>
  <path class="fil0 str1" d="M3948 902c3,-170 28,-157 142,-262 162,-150 66,-327 319,-529 21,-17 43,-33 65,-50 69,-51 137,-92 213,-131l0 60c-136,73 -317,192 -391,330 -49,94 -62,174 -102,259 -80,171 -175,89 -201,354 -7,73 -11,124 -34,195 -37,113 -63,164 55,234 110,65 149,137 111,266 -45,151 -116,172 -57,350 83,170 313,48 403,315 16,45 38,151 78,175 32,19 103,21 143,28 -3,72 14,52 -63,41 -191,-25 -166,-80 -229,-234 -103,-225 -323,-109 -403,-329 -57,-159 -12,-168 57,-307 163,-331 -235,-217 -183,-434 33,-134 72,-162 77,-321l0 -10z"/>
  <path class="fil0 str1" d="M4247 2022c-340,-165 115,-407 -170,-670 -92,-85 -96,-95 -67,-222l7 -31c22,-119 22,-257 112,-348 167,-170 101,-231 203,-395 54,-87 123,-145 203,-206 50,-37 99,-68 152,-98l0 61c-181,110 -334,225 -388,440 -40,158 -44,144 -138,270 -77,104 -141,339 -76,460l7 13c66,110 132,139 122,294 -7,118 -84,263 24,342 22,16 45,28 69,41l11 5c198,95 174,99 254,298 31,77 46,87 123,104 0,75 14,62 -50,54 -84,-11 -88,-58 -114,-135 -55,-166 -59,-196 -232,-257 -18,-7 -34,-13 -52,-20z"/>
  <path class="fil0 str1" d="M4121 1073c5,-75 22,-110 64,-171 133,-169 113,-143 159,-350 19,-85 49,-122 106,-186l12 -12c68,-68 143,-128 225,-178l0 63c-67,45 -130,96 -188,153 -137,147 -103,161 -148,344 -53,207 -190,168 -173,395 13,165 14,124 76,269 75,177 3,283 48,402 22,59 85,96 134,134 115,92 112,124 188,236 21,31 66,65 68,68 3,6 3,71 0,74 -24,-3 -68,-47 -82,-69 -61,-100 -49,-160 -160,-249 -20,-16 -41,-30 -63,-44 -180,-111 -158,-127 -136,-324 28,-252 -136,-285 -134,-478 0,-26 2,-52 4,-77z"/>
  <path class="fil0 str1" d="M4355 1691c-15,-140 -16,-208 -54,-349 -27,-100 -64,-245 -16,-342l6 -14c12,-21 25,-38 40,-56 126,-163 84,-288 159,-402 17,-25 47,-55 68,-77 40,-40 83,-77 129,-111l0 67c-32,26 -62,53 -91,82 -130,132 -95,165 -154,322 -34,86 -52,95 -94,166 -53,88 -25,234 -11,332 12,79 27,158 39,237 37,257 76,261 242,442 8,8 72,72 73,72 1,22 0,46 0,68 -70,-65 -123,-142 -192,-211 -80,-78 -126,-111 -144,-226z"/>
  <circle class="fil2 str1" cx="4020" cy="453" r="136"/>
  <circle class="fil2 str1" cx="4033" cy="1561" r="87"/>
  <circle class="fil2 str1" cx="3973" cy="1079" r="69"/>
  <circle class="fil2 str1" cx="3517" cy="1903" r="81"/>
  <circle class="fil2 str1" cx="3902" cy="2466" r="244"/>
  <circle class="fil2 str1" cx="321" cy="66" r="244"/>
  <path class="fil1" d="M826 749c2,6 4,12 5,18l-429 131c-2,-6 -4,-11 -6,-18l430 -131zm-432 125c-1,-6 -3,-12 -4,-18l427 -131c3,6 5,12 7,18l-430 131zm-5 -25c-1,-6 -2,-13 -2,-19l419 -128c3,6 6,11 9,17l-426 130zm-3 -26c0,-7 0,-13 1,-20l404 -123c4,5 8,11 11,16l-416 127zm1 -27c1,-7 2,-14 3,-20l383 -117c5,5 9,10 14,15l-400 122zm4 -28c2,-7 4,-14 6,-21l354 -108c6,4 11,9 16,14l-376 115zm9 -29c2,-8 6,-15 9,-23l315 -96c7,4 14,9 20,14l-344 105zm14 -31c4,-9 9,-17 15,-24l260 -80c9,3 18,7 26,12l-301 92zm22 -34c8,-10 16,-19 26,-27l179 -55c13,2 25,5 37,8l-242 74zm40 -39c20,-15 44,-27 70,-35 26,-8 52,-11 77,-10l-147 45zm356 139c1,6 2,13 3,19l-422 129c-3,-6 -6,-12 -8,-17l427 -131zm4 26c0,6 0,13 0,19l-409 125c-4,-5 -7,-11 -10,-16l419 -128zm0 27c-1,6 -1,13 -2,20l-390 119c-4,-5 -9,-11 -13,-16l405 -123zm-3 27c-2,7 -3,14 -5,21l-363 111c-5,-5 -11,-10 -16,-15l384 -117zm-8 29c-2,8 -5,15 -8,22l-326 100c-7,-4 -13,-9 -20,-14l354 -108zm-12 31c-4,8 -8,16 -13,23l-277 85c-8,-4 -17,-8 -24,-13l314 -95zm-19 32c-7,10 -14,18 -23,27l-205 62c-11,-2 -22,-5 -33,-9l261 -80zm-34 37c-16,15 -36,28 -57,37l-53 16c-23,4 -46,5 -69,2l179 -55z"/>
  <path class="fil0 str0" d="M246 1512c23,0 44,4 65,11 -19,1 -39,1 -58,1 -25,0 -50,-1 -75,1 21,-9 44,-13 68,-13zm81 18c13,7 25,14 36,23 -35,3 -72,1 -110,0 -42,-2 -84,-4 -125,1 9,-8 20,-15 31,-20 31,-3 62,-3 94,-3 25,0 50,1 74,-1zm44 30c8,7 16,15 22,23 -45,6 -92,2 -140,-1 -51,-4 -103,-8 -153,0 5,-7 11,-13 17,-19 44,-6 90,-5 136,-3 40,2 80,4 118,0zm28 30c5,8 10,16 15,25 -51,8 -106,2 -160,-4 -58,-7 -116,-13 -172,-3 3,-6 7,-11 11,-17 51,-10 106,-6 160,-2 50,4 99,8 146,1zm18 32c4,8 7,16 10,24 -56,11 -114,3 -173,-6 -62,-9 -124,-18 -184,-6 2,-6 5,-12 7,-17 57,-12 117,-5 176,1 56,7 112,13 164,4zm12 32c2,9 3,18 4,28 -57,10 -118,-1 -179,-13 -64,-12 -128,-24 -191,-12 1,-5 2,-10 4,-14 60,-14 123,-5 186,5 60,8 119,17 176,6zm5 35c0,4 0,8 0,11 0,7 0,14 -1,21 -58,7 -118,-8 -179,-23 -64,-16 -130,-32 -195,-22 1,-4 2,-7 2,-11 63,-13 128,-1 192,12 61,11 123,23 181,12zm-2 40c-2,11 -4,21 -7,31 -56,2 -113,-15 -170,-32 -65,-20 -131,-40 -197,-33 0,-4 0,-7 1,-11 64,-10 129,6 194,22 60,15 120,30 179,23zm-10 39c-4,11 -10,21 -16,31 -50,-4 -100,-23 -151,-42 -64,-24 -129,-48 -197,-44 0,-3 0,-7 0,-10 65,-7 130,12 194,32 57,17 114,34 170,33zm-20 38c-6,9 -13,18 -21,25 -42,-9 -84,-27 -126,-45 -63,-27 -127,-54 -194,-54 -1,-4 -2,-7 -2,-11 66,-4 130,19 193,43 50,19 100,37 150,42zm-28 32c-7,7 -16,14 -25,20 -31,-12 -62,-27 -94,-43 -61,-30 -123,-60 -190,-63 -1,-4 -2,-8 -3,-12 66,0 128,27 190,53 41,18 81,35 122,45zm-33 25c-9,5 -18,10 -28,13 -20,-10 -39,-20 -58,-31 -58,-34 -118,-67 -184,-75 -1,-3 -2,-7 -3,-10 64,4 124,33 184,62 30,15 59,29 89,41zm-38 17c-9,3 -19,5 -28,6 -7,-4 -13,-8 -19,-12 -56,-35 -112,-71 -175,-83 -2,-4 -4,-8 -6,-13 63,9 120,41 177,73 17,10 34,20 51,29zm-40 8c-6,0 -11,0 -17,0 -3,0 -7,0 -10,0 -44,-31 -89,-60 -140,-74 -3,-5 -7,-9 -9,-14 59,13 112,47 164,81 4,2 8,4 12,7zm-43 -1c-45,-7 -86,-29 -115,-62 41,13 79,36 115,62z"/>
 </g>
</svg>
