<?xml version="1.0" encoding="UTF-8"?>
<!DOCTYPE svg PUBLIC "-//W3C//DTD SVG 1.1//EN" "http://www.w3.org/Graphics/SVG/1.1/DTD/svg11.dtd">
<!-- Creator: CorelDRAW X7 -->
<svg xmlns="http://www.w3.org/2000/svg" xml:space="preserve" width="4.13333in" height="2.4in" version="1.1" style="shape-rendering:geometricPrecision; text-rendering:geometricPrecision; image-rendering:optimizeQuality; fill-rule:evenodd; clip-rule:evenodd"
viewBox="0 0 4133 2400"
 xmlns:xlink="http://www.w3.org/1999/xlink">
 <defs>
  <style type="text/css">
   <![CDATA[
    .str1 {stroke:rgb(105, 96, 100);stroke-width:3.33071;animation:bobbing-motion 2s ease-in-out alternate infinite;animation-delay:var(--delay)}
    .str0 {stroke:rgb(105, 96, 100);stroke-width:3.33071;animation:bobbing-motion 2s ease-in-out alternate infinite;animation-delay:var(--delay)}
    .fil0 {fill:none;fill-rule:nonzero}
    .fil1 {fill:rgb(25, 23, 27)}
    @keyframes bobbing-motion {
      0% {transform:translateX(0) translateY(0);}
      100% {transform:translateX(50px) translateY(50px);}
    }
   ]]>
  </style>
 </defs>
 <g id="Layer_x0020_1">
  <metadata id="CorelCorpID_0Corel-Layer"/>
  <g id="_638565048">
   <path class="fil0 str0" style="--delay:0.0s" d="M3899 3157c-185,-38 -370,-74 -555,-113 -161,-33 -200,-131 -403,-108 -185,21 -170,-1 -331,-65 -72,-28 -124,-28 -199,-21 -137,15 -108,46 -254,-15 -105,-44 -91,-44 -195,-49 -143,-7 -248,-60 -372,-120 -134,-61 -201,-26 -337,-49 -109,-21 -177,-27 -280,-75 -312,-144 -456,3 -706,-57 -136,-34 -288,-95 -419,-149 -21,-9 -42,-19 -63,-29 -1,33 -1,20 40,37 113,45 233,102 350,132 226,55 226,23 452,9 144,-9 242,31 370,84 67,27 164,41 237,56 79,16 135,14 207,26 101,15 211,96 330,125 78,20 134,23 213,21 67,-2 172,54 248,74 70,17 136,-14 216,-13 184,5 196,70 332,94 153,27 181,-49 369,32 100,43 113,57 229,80 172,35 345,71 518,106l3 -13z"/>
   <path class="fil0 str0" style="--delay:0.4s" d="M3911 3097c-160,-33 -324,-63 -483,-97 -160,-35 -232,-154 -435,-121 -171,28 -165,12 -326,-56 -97,-41 -162,-38 -261,-7 -138,46 -141,25 -267,-46 -91,-50 -103,-27 -153,-49 -29,-12 -87,-47 -119,-64 -44,-23 -184,-119 -209,-126 -75,-20 -200,80 -394,28 -105,-27 -120,-29 -217,-79 -25,-12 -50,-23 -76,-34 -203,-85 -460,89 -682,-16 -96,-47 -104,-57 -210,-84 -112,-28 -193,-69 -295,-120 2,32 2,20 51,42 97,42 163,67 264,97 26,8 44,14 68,25 203,97 227,96 456,65 208,-29 241,-48 431,50 85,42 214,77 310,80 108,3 224,-62 306,-20 47,25 97,63 147,91 27,14 162,84 186,86 126,10 175,86 281,106 130,8 174,-92 372,-14 183,72 151,82 345,54 172,-25 265,91 425,124 160,33 321,66 482,98l3 -13z"/>
   <path class="fil0 str0" style="--delay:0.8s" d="M3923 3037c-101,-20 -393,-70 -469,-105 -143,-65 -195,-133 -371,-108 -225,32 -171,31 -376,-53 -94,-39 -161,-41 -257,-5 -158,67 -144,48 -281,-48 -90,-60 -113,-27 -175,-68 -84,-57 -150,-91 -233,-155 -99,-72 -110,-23 -217,20 -294,118 -391,-156 -647,-155 -23,0 -38,2 -61,6 -141,28 -231,79 -387,45 -108,-29 -138,-83 -247,-91 -178,-14 -230,-24 -374,-138 -9,-7 -57,-52 -50,-24 2,10 144,101 167,112 113,56 160,43 272,62 119,21 141,106 324,99 31,-1 61,-5 92,-9 199,-28 222,-104 436,-2 63,30 116,63 174,92 234,117 386,-75 464,-38 25,12 90,65 119,86 22,14 190,121 205,125 52,13 49,-5 111,34 75,47 128,110 223,89 139,-44 164,-90 325,-28 174,66 155,91 346,59 259,-44 292,91 509,135 125,26 250,51 375,77l3 -14z"/>
   <path class="fil0 str0" style="--delay:1.2s" d="M3935 2978c-107,-22 -215,-43 -322,-66 -166,-35 -263,-181 -473,-136 -220,47 -196,27 -395,-54 -94,-39 -174,-41 -269,-2 -190,85 -145,16 -291,-77 -47,-30 -100,-14 -175,-52 -97,-51 -157,-93 -244,-158 -74,-54 -100,-5 -176,36 -159,87 -283,36 -412,-71 -100,-83 -230,-95 -353,-65 -202,55 -228,71 -420,-42 -86,-46 -113,-17 -207,-11 -153,9 -260,-41 -366,-148 -22,-22 -34,-33 -61,-49 2,25 9,14 39,40 93,82 135,133 267,158 97,18 143,-1 229,-1 97,0 150,115 341,105 147,-12 200,-92 376,-46 161,45 148,92 269,150 225,107 356,-84 421,-71 21,3 56,31 75,44 35,26 69,52 106,76 55,34 143,94 207,97 85,3 122,66 194,117 101,65 164,-61 315,-49 233,23 215,152 502,86 234,-53 309,97 499,136 107,22 214,44 321,66l3 -13z"/>
   <path class="fil0 str0" style="--delay:1.6s" d="M3947 2918c-93,-19 -283,-50 -361,-84 -187,-84 -240,-134 -451,-83 -235,55 -271,-93 -479,-106 -46,-3 -77,0 -122,14 -140,51 -133,64 -245,-33 -110,-89 -123,-39 -239,-85 -125,-51 -172,-90 -282,-159 -77,-48 -104,33 -193,69 -143,58 -280,-31 -390,-111 -73,-54 -158,-58 -247,-53 -41,3 -76,9 -116,17 -209,48 -176,19 -349,-76 -113,-57 -145,-4 -267,4 -165,10 -261,-51 -375,-158 -5,-6 -68,-63 -61,-31 0,1 25,13 30,17 63,46 81,90 167,136 211,110 371,-4 449,23 135,47 148,150 339,108l12 -2c112,-27 240,-54 352,-11 59,23 123,98 210,135 257,111 333,-102 412,-71 27,9 117,78 146,97 71,44 182,103 267,105 79,2 113,56 175,106 98,77 165,-42 311,-30 164,15 240,102 363,115 157,16 193,-91 434,7 128,53 123,75 275,106 78,16 155,32 232,47l3 -13z"/>
   <path class="fil0 str0" style="--delay:2.0s" d="M3959 2859c-117,-24 -234,-40 -344,-86 -201,-83 -247,-94 -456,-50 -203,43 -245,-97 -447,-123 -49,-6 -89,-9 -137,4 -176,56 -140,13 -280,-66 -58,-33 -102,-21 -168,-42 -120,-39 -178,-71 -286,-133 -84,-46 -79,-75 -153,-17 -153,117 -361,-28 -514,-74 -82,-25 -272,-7 -360,-1 -229,12 -236,-157 -455,-126 -191,28 -325,-6 -483,-115 -95,-64 -115,-31 -92,-30 37,3 136,85 180,109 139,76 255,73 404,47 182,-31 209,135 415,125 14,-1 27,-2 41,-3 115,-13 271,-35 379,18 133,67 337,174 474,66 79,-62 66,-39 163,16 47,26 91,53 140,77 67,31 147,67 222,69 140,5 147,164 335,103 105,-35 199,-24 300,21 205,92 156,114 374,68 239,-50 329,71 531,112 72,15 143,29 215,44l2 -13z"/>
   <path class="fil0 str0" style="--delay:1.6s" d="M3971 2799c-108,-22 -188,-35 -294,-73 -204,-73 -255,-75 -463,-35 -213,40 -211,-76 -392,-124 -49,-14 -160,-27 -211,-19 -130,33 -125,20 -242,-51 -98,-56 -129,-29 -226,-65 -112,-44 -230,-105 -335,-164 -101,-57 -51,33 -201,3 -159,-31 -306,-67 -469,-46 -60,8 -140,12 -200,13 -208,3 -238,-104 -415,-142 -184,-40 -355,-91 -535,-145 -59,-18 -129,-31 -190,-7 -7,2 -21,16 3,10 93,-24 239,51 335,78 108,30 183,41 291,58 25,4 50,10 75,15 229,49 174,161 499,135 210,-15 271,-10 480,33 71,15 176,55 235,7 46,-37 59,-9 115,21 61,32 131,71 193,100 80,35 142,64 229,69 83,6 137,77 221,105 74,21 117,-28 190,-19 200,24 177,31 342,118 144,77 232,-6 393,-2 153,5 264,78 409,107 54,11 107,22 161,33l2 -13z"/>
   <path class="fil0 str0" style="--delay:1.2s" d="M3984 2739c-99,-20 -161,-31 -257,-65 -173,-62 -265,-55 -440,-18 -239,50 -208,-69 -392,-130 -51,-17 -158,-25 -217,-33 -71,-11 -84,39 -191,-17 -88,-47 -105,-67 -203,-72 -140,-15 -309,-129 -434,-194 -131,-64 -86,6 -195,-34 -170,-61 -306,-56 -475,3 -55,19 -87,19 -144,24 -215,23 -218,-77 -389,-140 -113,-38 -166,-22 -270,-89 -148,-96 -348,-191 -520,-100 -19,10 -41,15 -50,35 111,-52 145,-68 274,-41 141,29 216,81 336,146 45,25 100,31 151,42 194,41 237,174 437,157 115,-10 114,-8 220,-41 149,-46 281,-29 426,22 121,43 42,-51 209,41l16 8c63,37 149,82 215,112 71,30 130,58 207,61 84,4 154,76 241,98 60,11 81,-20 158,-6 213,37 165,0 347,122 137,91 220,21 372,8 181,-16 292,58 457,92 36,8 72,15 108,23l3 -14z"/>
   <path class="fil0 str0" style="--delay:0.8s" d="M3996 2680c-99,-21 -155,-35 -250,-67 -269,-89 -423,53 -549,17 -112,-32 -123,-153 -335,-169 -57,-5 -106,-9 -162,-19 -79,-15 -63,32 -184,-34 -95,-49 -106,-54 -207,-59 -140,-14 -294,-124 -416,-192 -130,-68 -123,-3 -227,-43 -177,-69 -298,-52 -470,20 -42,18 -59,22 -105,27 -232,27 -204,-80 -379,-146 -76,-27 -240,-46 -289,-76 -76,-47 -107,-93 -204,-132 -131,-52 -260,-39 -377,40 -4,2 -6,8 -9,12 128,-76 228,-98 372,-44 104,40 137,88 222,140 42,26 138,39 189,49 187,39 209,129 321,165 80,19 185,6 259,-28 315,-143 472,15 538,1 48,-9 41,-18 101,5 38,15 80,40 115,61 109,65 255,148 383,154 109,2 161,72 259,93 50,7 57,-11 128,4 206,36 200,-19 376,125 127,103 188,49 337,21 212,-41 299,35 489,73 23,5 47,10 71,15l3 -13z"/>
   <path class="fil0 str0" style="--delay:0.4s" d="M4008 2620c-103,-21 -166,-43 -262,-70 -264,-76 -408,121 -542,6 -101,-87 -117,-136 -272,-151 -70,-7 -139,-7 -210,-15 -83,-10 -61,25 -168,-33 -185,-97 -154,-32 -281,-72 -141,-46 -196,-90 -319,-163 -191,-110 -159,-7 -278,-48 -182,-61 -282,-53 -461,13 -47,17 -61,19 -112,21 -180,6 -194,-117 -383,-157 -84,-18 -247,-37 -312,-85 -105,-78 -177,-130 -313,-129 -62,1 -172,26 -222,62 -3,1 -6,8 -8,10 202,-107 349,-78 522,57 39,29 50,38 98,48 71,15 143,29 214,44 202,41 210,171 397,161 116,-6 174,-60 296,-75 110,-14 183,4 288,39 120,41 72,-66 277,56 63,38 128,79 194,112 82,37 137,60 226,59 83,-1 142,51 219,82 50,20 81,4 138,13 204,29 258,-29 428,134 116,112 176,55 322,20 204,-49 295,28 486,67l35 7 3 -13z"/>
   <path class="fil0 str0" style="--delay:0.0s" d="M4020 2560c-109,-22 -216,-62 -320,-80 -191,-33 -306,132 -432,13 -120,-113 -112,-111 -285,-146 -52,-11 -95,-13 -148,-13 -62,1 -86,-1 -147,6 -105,1 -147,-91 -274,-92 -278,-15 -440,-234 -589,-226 -105,11 -63,39 -192,8 -161,-39 -213,-30 -371,-3 -74,12 -158,-6 -227,-33 -110,-48 -123,-67 -249,-93 -151,-30 -195,-25 -322,-117 -107,-77 -180,-82 -308,-81 -70,1 -189,23 -251,53 -5,2 -18,15 2,6 148,-66 319,-67 470,-8 107,49 105,93 247,125 59,13 119,25 178,38 157,34 189,114 366,127 89,5 180,-36 288,-34 97,2 150,28 234,40 40,5 68,-2 107,-12 63,-17 98,2 154,30 164,87 251,190 457,191 75,-1 121,33 186,69 74,40 96,17 176,21 142,5 308,-3 420,101 110,102 104,131 271,77 216,-70 237,-37 444,21 38,10 74,18 112,26l3 -14z"/>
   <path class="fil0 str0" style="--delay:0.4s" d="M4032 2501c-124,-26 -327,-103 -445,-74 -160,38 -153,69 -282,-33 -61,-48 -89,-60 -166,-75 -119,-25 -139,-56 -281,-52 -76,2 -83,9 -148,21 -100,6 -139,-83 -254,-91 -292,-27 -382,-189 -560,-216 -102,-11 -161,32 -275,18 -97,-11 -158,-24 -259,-25 -108,-2 -192,-38 -295,-68 -54,-16 -107,-30 -162,-41 -260,-54 -203,-40 -418,-182 -122,-80 -175,-50 -305,-21 -70,14 -134,28 -204,44 -17,5 -61,6 -58,20 0,1 181,-43 198,-46 74,-12 205,-46 275,-28 138,52 176,151 349,191 59,13 119,25 178,37 114,25 218,70 326,96 60,14 170,1 246,9 181,20 133,49 335,6 66,-14 111,9 169,38 76,39 143,89 222,126 86,37 139,50 230,53 66,2 120,43 179,75 68,36 98,6 175,1 126,-7 160,-1 280,35 169,48 117,25 252,127 118,88 203,-34 360,-11 109,16 211,54 318,75l18 4 2 -13z"/>
  </g>
  <circle class="fil1 str1" style="--delay:0.0s" cx="1435" cy="2394" r="129"/>
  <circle class="fil1 str1" style="--delay:0.3s" cx="2682" cy="2248" r="96"/>
  <circle class="fil1 str1" style="--delay:0.6s" cx="963" cy="2030" r="182"/>
  <circle class="fil1 str1" style="--delay:0.9s" cx="50" cy="2216" r="61"/>
  <circle class="fil1 str1" style="--delay:1.2s" cx="1683" cy="1937" r="84"/>
  <circle class="fil1 str1" style="--delay:1.5s" cx="3388" cy="2365" r="113"/>
  <circle class="fil1 str1" style="--delay:1.2s" cx="2271" cy="1775" r="127"/>
  <circle class="fil1 str1" style="--delay:0.9s" cx="967" cy="1456" r="128"/>
  <circle class="fil1 str1" style="--delay:0.6s" cx="124" cy="1346" r="79"/>
  <circle class="fil1 str1" style="--delay:0.3s" cx="1733" cy="1023" r="122"/>
 </g>
</svg>
