<?xml version="1.0" encoding="UTF-8"?>
<!DOCTYPE svg PUBLIC "-//W3C//DTD SVG 1.1//EN" "http://www.w3.org/Graphics/SVG/1.1/DTD/svg11.dtd">
<!-- Creator: CorelDRAW X7 -->
<svg xmlns="http://www.w3.org/2000/svg" xml:space="preserve" width="4.13333in" height="2.4in" version="1.1" style="shape-rendering:geometricPrecision; text-rendering:geometricPrecision; image-rendering:optimizeQuality; fill-rule:evenodd; clip-rule:evenodd"
viewBox="0 0 4133 2400"
 xmlns:xlink="http://www.w3.org/1999/xlink">
 <defs>
  <style type="text/css">
   <![CDATA[
    .str0 {stroke:rgb(135, 42, 201);stroke-width:3}
    .str1 {stroke:rgb(135, 42, 201);stroke-width:3}
    .fil0 {fill:none}
    .fil2 {fill:rgb(253, 235, 244)}
    .fil1 {fill:rgb(220, 179, 249)}
   ]]>
  </style>
 </defs>
 <g id="Layer_x0020_1">
  <metadata id="CorelCorpID_0Corel-Layer"/>
  <path class="fil0 str0" d="M941 594c41,0 81,8 117,21 -34,1 -69,1 -104,0 -46,0 -91,0 -136,2 38,-15 80,-23 123,-23zm148 34c23,11 45,25 65,41 -65,5 -132,2 -200,-1 -76,-3 -153,-6 -228,2 17,-14 36,-26 56,-37 56,-4 114,-4 172,-4 45,1 90,1 135,-1zm80 53c15,13 28,27 40,42 -82,11 -168,5 -254,-2 -95,-7 -190,-14 -281,1 10,-12 21,-24 33,-35 80,-12 164,-8 247,-5 73,3 146,6 215,-1zm50 55c10,14 19,29 27,45 -93,16 -191,5 -291,-7 -105,-12 -211,-24 -312,-5 6,-11 12,-21 19,-30 94,-19 193,-11 292,-4 90,7 180,14 265,1zm34 58c6,15 12,30 16,45 -100,19 -206,4 -314,-12 -112,-16 -226,-33 -335,-11 4,-10 9,-21 14,-31 103,-22 212,-9 319,3 103,12 204,24 300,6zm20 59c4,16 7,33 9,50 -105,19 -215,-2 -326,-23 -117,-22 -234,-44 -348,-22 2,-9 4,-18 7,-26 109,-24 224,-8 338,9 110,16 218,32 320,12zm10 64c1,7 1,13 1,20 0,13 -1,25 -2,38 -106,13 -216,-14 -326,-42 -118,-29 -237,-58 -355,-40 1,-7 2,-14 4,-20 113,-23 231,-1 348,21 113,21 224,42 330,23zm-3 72c-3,20 -8,39 -14,57 -102,4 -205,-28 -309,-59 -118,-36 -238,-73 -358,-59 0,-7 0,-14 1,-21 117,-19 235,11 353,40 110,27 220,54 327,42zm-19 71c-8,20 -17,39 -28,56 -92,-7 -184,-42 -276,-76 -117,-44 -235,-88 -358,-80 0,-6 0,-12 0,-18 119,-14 237,22 354,58 103,32 206,63 308,60zm-37 70c-11,16 -23,31 -37,46 -77,-17 -153,-50 -230,-83 -114,-49 -230,-99 -353,-98 -2,-7 -3,-14 -3,-21 120,-7 236,36 351,79 91,34 181,68 272,77zm-49 57c-14,14 -30,26 -46,36 -58,-20 -114,-48 -171,-76 -112,-55 -224,-111 -346,-116 -2,-7 -4,-14 -6,-21 120,-1 234,48 346,96 74,32 148,64 223,81zm-61 46c-16,9 -34,18 -52,24 -35,-18 -69,-37 -104,-57 -107,-61 -215,-122 -335,-136 -2,-6 -5,-12 -7,-19 118,7 227,61 336,114 54,27 107,53 162,74zm-70 31c-16,5 -34,9 -51,12 -12,-8 -23,-15 -35,-23 -100,-64 -202,-129 -317,-151 -4,-7 -8,-15 -12,-23 115,15 219,75 322,133 31,18 62,35 93,52zm-73 14c-10,1 -20,1 -30,1 -6,0 -12,0 -18,0 -81,-56 -163,-109 -255,-136 -6,-8 -12,-16 -17,-25 108,24 204,86 300,147 6,4 13,9 20,13zm-77 -2c-83,-11 -157,-53 -210,-113 75,25 143,67 210,113z"/>
  <path class="fil1" d="M4257 780c1,6 3,12 4,18l-428 131c-3,-6 -5,-12 -6,-18l430 -131zm-432 124c-2,-6 -3,-12 -5,-18l428 -130c2,5 4,11 6,17l-429 131zm-6 -25c-1,-6 -1,-12 -2,-19l419 -127c3,5 6,11 9,16l-426 130zm-2 -26c0,-6 0,-13 0,-19l404 -124c4,6 8,11 11,17l-415 126zm1 -27c0,-6 1,-13 2,-20l383 -117c5,5 10,10 14,16l-399 121zm4 -28c1,-7 3,-14 5,-21l354 -108c6,5 12,10 17,15l-376 114zm8 -29c3,-8 6,-15 10,-22l314 -96c7,4 14,8 21,13l-345 105zm14 -31c4,-8 10,-16 15,-24l261 -79c9,3 17,7 26,11l-302 92zm22 -33c8,-10 17,-19 26,-28l180 -55c12,2 25,5 37,9l-243 74zm40 -39c21,-16 44,-28 70,-36 26,-8 52,-11 78,-9l-148 45zm357 139c1,6 2,12 2,18l-421 129c-3,-6 -6,-11 -9,-17l428 -130zm3 25c0,7 0,13 0,20l-409 124c-3,-5 -7,-10 -10,-16l419 -128zm0 27c0,7 -1,13 -2,20l-389 119c-5,-5 -9,-10 -13,-16l404 -123zm-3 28c-1,7 -3,14 -5,21l-362 110c-6,-4 -11,-9 -16,-15l383 -116zm-7 29c-3,7 -5,14 -9,22l-326 99c-7,-4 -13,-9 -19,-14l354 -107zm-12 30c-4,8 -9,16 -14,24l-277 84c-8,-4 -16,-8 -24,-12l315 -96zm-20 33c-7,9 -14,18 -22,26l-205 63c-12,-3 -23,-6 -34,-10l261 -79zm-33 36c-17,15 -36,28 -58,38l-53 16c-23,4 -46,4 -69,1l180 -55z"/>
  <path class="fil0 str0" d="M3677 1542c22,0 44,4 64,12 -19,0 -38,0 -58,0 -24,0 -50,0 -74,1 21,-8 44,-13 68,-13zm81 19c13,6 25,13 36,22 -36,3 -73,2 -110,0 -42,-2 -85,-3 -126,1 10,-8 20,-14 31,-20 31,-3 63,-2 94,-2 25,0 50,0 75,-1zm44 29c8,7 15,15 22,23 -45,6 -93,3 -140,-1 -52,-4 -104,-8 -154,1 5,-7 11,-14 18,-20 44,-6 90,-4 135,-2 41,1 81,3 119,-1zm27 30c6,8 11,16 15,25 -51,9 -105,3 -160,-4 -58,-6 -116,-13 -171,-3 3,-5 6,-11 10,-16 52,-10 106,-6 160,-2 50,4 99,7 146,0zm19 32c3,8 6,16 9,25 -55,10 -114,2 -173,-7 -62,-9 -124,-18 -184,-6 3,-6 5,-11 8,-17 56,-12 116,-5 175,2 56,6 112,13 165,3zm11 32c2,9 4,19 5,28 -58,10 -118,-1 -179,-13 -64,-12 -129,-24 -192,-12 2,-5 3,-9 4,-14 60,-13 124,-4 186,5 60,9 120,17 176,6zm5 36c1,3 1,7 1,11 0,7 -1,13 -1,20 -59,8 -119,-7 -179,-22 -65,-16 -130,-33 -195,-23 0,-3 1,-7 2,-11 62,-12 127,0 191,12 62,12 123,23 181,13zm-1 39c-2,11 -5,21 -8,31 -56,3 -113,-15 -170,-32 -65,-20 -130,-40 -197,-32 0,-4 1,-8 1,-12 64,-10 129,6 194,22 61,15 121,30 180,23zm-11 39c-4,11 -9,21 -15,31 -51,-4 -101,-23 -152,-42 -64,-24 -129,-48 -196,-44 0,-3 -1,-6 -1,-10 66,-7 131,13 195,32 57,18 113,35 169,33zm-20 39c-6,9 -13,17 -21,25 -42,-10 -84,-27 -126,-45 -63,-28 -126,-55 -194,-54 -1,-4 -1,-8 -2,-12 66,-4 130,20 194,43 49,19 99,38 149,43zm-27 31c-8,7 -16,14 -25,20 -32,-11 -63,-27 -94,-42 -62,-30 -123,-61 -190,-64 -2,-4 -3,-8 -3,-11 65,-1 128,26 189,53 41,17 82,35 123,44zm-34 25c-9,5 -18,10 -28,14 -19,-10 -38,-21 -57,-32 -59,-33 -118,-67 -184,-74 -2,-4 -3,-7 -4,-11 65,4 125,33 184,63 30,14 59,29 89,40zm-38 17c-9,3 -18,5 -28,7 -6,-4 -13,-8 -19,-13 -55,-35 -111,-71 -174,-83 -3,-4 -5,-8 -7,-12 63,8 120,41 177,73 17,9 34,19 51,28zm-40 8c-5,1 -11,1 -16,1 -4,0 -7,0 -11,0 -44,-31 -89,-61 -140,-75 -3,-4 -6,-9 -9,-14 59,13 112,47 165,81 3,2 7,5 11,7zm-42 -1c-46,-6 -87,-29 -116,-62 41,14 79,37 116,62z"/>
  <path class="fil1" d="M3026 -219c5,16 10,32 13,49l-1159 353c-6,-15 -12,-31 -17,-48l1163 -354zm-1168 337c-4,-17 -8,-33 -11,-50l1155 -352c7,15 13,31 19,47l-1163 355zm-14 -68c-3,-17 -5,-34 -6,-51l1133 -346c8,15 16,30 24,46l-1151 351zm-7 -70c0,-18 0,-36 1,-53l1093 -334c11,14 21,29 30,44l-1124 343zm2 -73c2,-19 4,-37 7,-55l1036 -316c13,13 25,27 37,42l-1080 329zm11 -76c5,-19 10,-39 16,-57l957 -292c15,12 30,25 44,39l-1017 310zm23 -79c8,-21 16,-41 26,-61l850 -259c19,11 38,23 55,36l-931 284zm38 -84c12,-22 25,-44 41,-65l704 -215c24,9 48,20 71,32l-816 248zm60 -90c21,-27 44,-52 70,-75l485 -148c34,5 68,13 100,23l-655 200zm108 -105c55,-42 118,-75 189,-96 70,-22 141,-30 210,-26l-399 122zm964 375c3,17 5,34 7,51l-1140 347c-8,-15 -16,-30 -23,-46l1156 -352zm8 69c2,18 2,36 2,53l-1106 337c-10,-14 -19,-29 -28,-44l1132 -346zm1 72c-1,19 -3,37 -5,55l-1054 321c-12,-13 -23,-27 -34,-42l1093 -334zm-9 75c-3,20 -7,39 -13,57l-980 299c-15,-12 -29,-26 -43,-40l1036 -316zm-19 78c-6,21 -14,41 -23,60l-882 269c-18,-11 -35,-23 -52,-37l957 -292zm-33 83c-11,22 -23,43 -36,64l-749 228c-22,-10 -44,-21 -65,-33l850 -259zm-53 88c-18,25 -38,49 -60,71l-555 170c-30,-7 -60,-15 -89,-26l704 -215zm-90 100c-45,40 -97,74 -155,100l-144 44c-62,11 -125,12 -185,3l484 -147z"/>
  <path class="fil1" d="M2489 2302c2,6 3,12 5,18l-429 131c-2,-6 -4,-12 -6,-18l430 -131zm-432 125c-2,-6 -3,-13 -4,-19l427 -130c2,6 5,12 7,18l-430 131zm-5 -25c-1,-7 -2,-13 -3,-19l419 -128c3,5 6,11 9,17l-425 130zm-3 -26c0,-7 0,-13 0,-20l405 -123c3,5 7,10 11,16l-416 127zm1 -27c0,-7 1,-14 2,-21l383 -117c5,5 10,11 14,16l-399 122zm4 -28c1,-7 3,-15 6,-22l353 -107c6,4 12,9 17,14l-376 115zm8 -30c3,-7 6,-15 10,-22l314 -96c7,4 14,9 21,13l-345 105zm14 -30c5,-9 10,-17 15,-25l261 -79c9,3 18,7 26,12l-302 92zm22 -34c8,-10 17,-19 26,-27l180 -55c12,2 25,4 37,8l-243 74zm40 -39c21,-15 44,-27 70,-35 26,-8 52,-11 78,-10l-148 45zm357 139c1,6 2,12 3,19l-422 128c-3,-5 -6,-11 -8,-17l427 -130zm3 26c1,6 1,13 1,19l-409 125c-4,-5 -8,-11 -11,-17l419 -127zm0 26c0,7 -1,14 -2,20l-389 119c-5,-5 -9,-10 -13,-15l404 -124zm-3 28c-1,7 -3,14 -5,21l-362 111c-6,-5 -11,-10 -16,-15l383 -117zm-7 29c-2,7 -5,15 -8,22l-327 99c-6,-4 -13,-8 -19,-13l354 -108zm-12 30c-4,8 -9,16 -14,24l-276 84c-9,-3 -17,-7 -25,-12l315 -96zm-20 33c-6,9 -14,18 -22,26l-205 63c-12,-2 -23,-6 -33,-10l260 -79zm-33 37c-17,15 -36,27 -58,37l-53 16c-23,4 -46,5 -68,1l179 -54z"/>
  <path class="fil0 str1" d="M379 916c-2,-175 22,-205 -125,-314 -168,-126 -122,-270 -230,-430 -35,-50 -76,-88 -122,-127 -21,-17 -43,-34 -64,-51 -96,-74 -193,-131 -302,-183l0 59c157,77 391,225 473,384 88,180 33,252 218,401 167,135 70,184 110,363 4,21 10,39 17,59 28,75 110,233 43,297 -93,87 -312,36 -165,303 88,163 108,172 26,347 -40,85 -115,121 -197,157 -250,107 -128,327 -396,388 -48,11 -83,16 -130,32 1,82 -19,57 85,25 159,-49 218,-64 316,-216 81,-126 73,-144 214,-221 100,-57 145,-138 188,-242 71,-198 -112,-286 -81,-405 30,-116 257,-84 241,-210 -3,-25 -13,-53 -21,-78 -39,-113 -92,-215 -98,-338z"/>
  <path class="fil0 str1" d="M275 902c-3,-170 -28,-157 -142,-262 -162,-150 -66,-327 -319,-529 -21,-17 -43,-33 -65,-50 -69,-51 -137,-92 -213,-131l0 60c136,73 317,192 391,330 49,94 62,174 102,259 80,171 175,89 200,354 8,73 12,124 35,195 37,113 63,164 -55,234 -110,65 -149,137 -111,266 45,151 115,172 57,350 -83,170 -313,48 -404,315 -15,45 -37,151 -77,175 -33,19 -103,21 -143,28 3,72 -15,52 63,41 191,-25 166,-80 229,-234 103,-225 322,-109 403,-329 57,-159 12,-168 -57,-307 -163,-331 235,-217 183,-434 -33,-134 -72,-162 -77,-321l0 -10z"/>
  <path class="fil0 str1" d="M-24 2022c340,-165 -115,-407 169,-670 93,-85 97,-95 68,-222l-7 -31c-22,-119 -22,-257 -112,-348 -168,-170 -101,-231 -203,-395 -54,-87 -123,-145 -203,-206 -50,-37 -99,-68 -152,-98l0 61c181,110 334,225 388,440 40,158 44,144 137,270 77,104 142,339 77,460l-7 13c-66,110 -132,139 -122,294 7,118 84,263 -24,342 -22,16 -46,28 -69,41l-11 5c-198,95 -174,99 -254,298 -31,77 -46,87 -123,104 0,75 -14,62 49,54 85,-11 89,-58 115,-135 55,-166 59,-196 232,-257 18,-7 34,-13 52,-20z"/>
  <path class="fil0 str1" d="M102 1073c-5,-75 -22,-110 -64,-171 -134,-169 -113,-143 -159,-350 -19,-85 -49,-122 -107,-186l-11 -12c-68,-68 -143,-128 -225,-178l0 63c67,45 130,96 187,153 138,147 104,161 148,344 54,207 191,168 174,395 -13,165 -14,124 -76,269 -75,177 -4,283 -48,402 -22,59 -85,96 -134,134 -115,92 -112,124 -189,236 -20,31 -65,65 -67,68 -3,6 -3,71 0,74 24,-3 68,-47 81,-69 62,-100 50,-160 161,-249 20,-16 40,-30 63,-44 180,-111 157,-127 136,-324 -28,-252 136,-285 134,-478 0,-26 -2,-52 -4,-77z"/>
  <path class="fil0 str1" d="M-132 1691c15,-140 16,-208 54,-349 27,-100 64,-245 16,-342l-7 -14c-11,-21 -24,-38 -39,-56 -126,-163 -84,-288 -159,-402 -17,-25 -47,-55 -68,-77 -40,-40 -84,-77 -129,-111l0 67c32,26 62,53 91,82 130,132 95,165 154,322 34,86 51,95 94,166 53,88 24,234 11,332 -12,79 -27,158 -39,237 -37,257 -76,261 -242,442 -8,8 -73,72 -73,72 -1,22 -1,46 -1,68 71,-65 124,-142 193,-211 80,-78 126,-111 144,-226z"/>
  <circle class="fil2 str1" cx="203" cy="453" r="136"/>
  <circle class="fil2 str1" cx="190" cy="1561" r="87"/>
  <circle class="fil2 str1" cx="250" cy="1079" r="69"/>
  <circle class="fil2 str1" cx="706" cy="1903" r="81"/>
  <circle class="fil2 str1" cx="321" cy="2466" r="244"/>
  <circle class="fil2 str1" cx="3902" cy="66" r="244"/>
 </g>
</svg>
